<svg width="12" height="11" viewBox="0 0 12 11" fill="none" xmlns="http://www.w3.org/2000/svg">
<path d="M2.54109 0.592332C2.15057 0.201808 1.5174 0.201807 1.12688 0.592331C0.736354 0.982855 0.736353 1.61602 1.12688 2.00654L2.54109 0.592332ZM9.63884 10.5185C10.0294 10.909 10.6625 10.909 11.0531 10.5185C11.4436 10.128 11.4436 9.49483 11.0531 9.10431L9.63884 10.5185ZM11.0533 2.00655C11.4438 1.61604 11.4438 0.98287 11.0533 0.592341C10.6628 0.201812 10.0296 0.201803 9.63907 0.592322L11.0533 2.00655ZM1.12687 9.1043C0.736341 9.49482 0.736333 10.128 1.12685 10.5185C1.51737 10.909 2.15054 10.9091 2.54107 10.5185L1.12687 9.1043ZM1.12688 2.00654L9.63884 10.5185L11.0531 9.10431L2.54109 0.592332L1.12688 2.00654ZM9.63907 0.592322L1.12687 9.1043L2.54107 10.5185L11.0533 2.00655L9.63907 0.592322Z" fill="#E8E8E8"/>
</svg>
