<svg width="50" height="57" viewBox="0 0 50 57" fill="none" xmlns="http://www.w3.org/2000/svg">
<path d="M18.0611 9.86502L17.1466 10.5297C9.38407 7.947 4.99943 14.7549 6.42739 20.2087C7.85513 25.6623 13.5779 30.6067 25.3546 29.9421C8.95035 31.6099 5.38236 22.8146 5.02323 19.0044C4.69436 15.519 7.16492 5.91696 18.0611 9.86502Z" fill="#A79ECD" stroke="#A79ECD" stroke-width="0.25" stroke-miterlimit="22.9256" stroke-linecap="round" stroke-linejoin="round"/>
<path d="M6.96333 11.8674L5.41081 14.206C1.33604 18.4867 2.99434 24.576 5.36779 27.225C8.64585 30.8843 13.9725 33.7794 26.0711 30.3862C16.0361 34.1461 8.2048 32.0644 4.95991 28.3622C2.37013 25.4077 -2.04067 18.2674 6.96333 11.8674Z" fill="#A79ECD" stroke="#A79ECD" stroke-width="0.25" stroke-miterlimit="22.9256" stroke-linecap="round" stroke-linejoin="round"/>
<path d="M1.90352 23.8783C1.58908 27.1344 2.37719 29.3698 3.95252 31.1285C7.23109 34.7881 14.443 38.271 26.8574 30.3057C14.6114 39.2373 6.67486 36.0235 3.42991 32.3216C1.4358 30.0463 -0.544101 26.556 1.40656 21.4222C1.45704 22.3151 1.63527 23.1257 1.90352 23.8783Z" fill="#A79ECD" stroke="#A79ECD" stroke-width="0.25" stroke-miterlimit="22.9256" stroke-linecap="round" stroke-linejoin="round"/>
<path d="M18.941 9.45961L20.2407 9.20723C24.7067 0.145937 33.8316 1.97995 36.9872 7.83418C40.1424 13.6878 39.279 22.9258 28.8435 32.8183C43.9718 19.6614 39.9477 9.09823 37.2067 5.57458C34.699 2.3516 24.9511 -3.53077 18.941 9.45961Z" fill="#A79ECD" stroke="#A79ECD" stroke-width="0.25" stroke-miterlimit="22.9256" stroke-linecap="round" stroke-linejoin="round"/>
<path d="M29.8737 1.29437L33.0472 1.88384C39.8936 1.86704 43.3629 8.46015 43.4826 12.7939C43.6488 18.7813 41.481 25.9437 28.5953 33.828C40.0386 28.0836 44.9621 19.3826 44.7343 13.3886C44.5522 8.60524 42.5586 -1.31416 29.8737 1.29437Z" fill="#A79ECD" stroke="#A79ECD" stroke-width="0.25" stroke-miterlimit="22.9256" stroke-linecap="round" stroke-linejoin="round"/>
<path d="M43.7235 6.90544C46.5885 9.36412 47.7112 11.9437 47.7912 14.8213C47.9567 20.8088 44.6731 30.1388 27.8698 34.4582C45.3033 31.101 49.4114 21.354 49.1832 15.361C49.0436 11.6777 47.9203 6.98482 42.1795 4.39838C42.8503 5.19413 43.3482 6.03396 43.7235 6.90544Z" fill="#A79ECD" stroke="#A79ECD" stroke-width="0.25" stroke-miterlimit="22.9256" stroke-linecap="round" stroke-linejoin="round"/>
<path d="M23.2199 9.71082C23.7199 9.71082 24.2087 9.76089 24.6831 9.85516C24.1598 10.6377 23.6337 11.5071 23.1218 12.4378C22.1685 11.7283 21.2125 11.0799 20.2857 10.5031C20.3331 10.4184 20.381 10.3332 20.4302 10.2484C21.2971 9.90189 22.2374 9.71082 23.2199 9.71082ZM25.7498 10.1497C26.9149 10.5673 27.9573 11.265 28.8048 12.1669C27.9558 12.9801 27.0715 13.929 26.199 14.9714C25.3893 14.233 24.5506 13.5326 23.7037 12.879C24.3411 11.8792 25.0266 10.9565 25.7498 10.1497ZM29.4542 12.9505C30.4741 14.3479 31.0816 16.0986 31.0816 17.998C31.0816 18.7672 30.9815 19.5124 30.7949 20.2197C29.6754 18.525 28.2551 16.9115 26.7018 15.4389C27.5862 14.5006 28.5114 13.6562 29.4542 12.9505ZM30.6893 20.5861C30.625 20.794 30.5527 20.9988 30.4727 21.1992C28.9402 19.6943 27.0898 18.3395 25.166 17.2112C25.5681 16.7074 25.9838 16.2206 26.4095 15.7538C28.0185 17.2672 29.4746 18.938 30.6893 20.5861ZM30.3682 21.4497C30.295 21.6179 30.2168 21.7837 30.133 21.9462C28.2621 20.7275 26.0504 19.749 23.7754 19.0854C24.1437 18.5509 24.5282 18.0257 24.926 17.515C26.9835 18.6341 28.8775 20.0072 30.3682 21.4497ZM30.0249 22.1481C28.6649 24.6213 26.1265 26.2846 23.2199 26.2846C22.1791 26.2846 21.1854 26.0713 20.2761 25.6834C21.0165 23.6875 22.1409 21.5261 23.505 19.4839C25.6981 20.0888 27.9269 21.0095 30.0249 22.1481ZM20.0062 25.5625C19.7059 25.4207 19.4158 25.2593 19.1367 25.0803C19.4106 23.1524 19.9716 21.0107 20.7568 18.8931C21.4945 19.0038 22.2455 19.1577 23.0021 19.3503C21.7202 21.3833 20.6458 23.5222 20.0062 25.5625ZM18.8667 24.8985C18.4452 24.6024 18.0524 24.265 17.6935 23.8907C17.7216 22.1323 17.7797 20.3882 17.9548 18.6867C18.7062 18.6789 19.4828 18.7276 20.2766 18.827C19.5656 20.8871 19.0519 22.9724 18.8667 24.8985ZM17.3737 23.5373C16.3128 22.2935 15.6037 20.7101 15.4116 18.9607C16.0947 18.8108 16.8142 18.7241 17.5615 18.696C17.4388 20.2625 17.381 21.8732 17.3737 23.5373ZM15.3617 18.234C15.3595 18.1552 15.3586 18.077 15.3586 17.998C15.3586 16.8731 15.5715 15.8003 15.9568 14.8221C16.6195 14.835 17.2999 14.9016 17.9906 15.0155C17.8299 16.0299 17.7046 17.0608 17.6105 18.1116C16.8319 18.1013 16.078 18.1413 15.3617 18.234ZM16.4234 13.8321C17.0175 12.7578 17.8338 11.837 18.8061 11.14C18.5386 12.1413 18.315 13.1564 18.1302 14.1882C17.5298 14.03 16.9578 13.9104 16.4234 13.8321ZM19.9156 11.211C20.9194 11.6702 21.9098 12.2413 22.8733 12.8958C22.4437 13.701 22.0269 14.5477 21.6339 15.4196C20.6349 14.9893 19.6569 14.6321 18.7332 14.3581C19.0315 13.2765 19.417 12.2249 19.9156 11.211ZM23.4438 13.2951C24.2974 13.9101 25.127 14.5869 25.9226 15.3051C25.4972 15.825 25.0752 16.3657 24.664 16.9224C23.8294 16.4528 22.9855 16.0259 22.1516 15.6479C22.5529 14.835 22.9848 14.0457 23.4438 13.2951ZM18.5393 15.1158C18.3066 16.0974 18.1392 17.1015 18.0177 18.1214C18.8086 18.1488 19.6222 18.226 20.445 18.3494C20.7398 17.5313 21.0636 16.7199 21.4089 15.9265C20.4518 15.5814 19.4881 15.3058 18.5393 15.1158ZM23.2635 18.9414C23.6366 18.3662 24.0257 17.8 24.4246 17.2493C23.6085 16.8279 22.7699 16.4466 21.9243 16.1187C21.5659 16.8747 21.2345 17.6483 20.9332 18.4273C21.7075 18.5592 22.488 18.732 23.2635 18.9414Z" fill="#A79ECD" stroke="#A79ECD" stroke-width="0.25" stroke-miterlimit="22.9256" stroke-linecap="round" stroke-linejoin="round"/>
<path d="M0.471863 37.2964H2.84624V42.2356H2.89335C3.00883 42.0149 3.12933 41.8047 3.25523 41.6058C3.38081 41.4071 3.50122 41.208 3.61669 41.0092L6.02244 37.2964H8.96316L5.45649 42.0536L9.15173 48.468H6.35262L3.75833 43.6446L2.84624 44.8217V48.468H0.471863V37.2964ZM16.4634 46.4958C16.4634 46.8822 16.4713 47.2519 16.4871 47.6062C16.5026 47.96 16.5316 48.2473 16.5738 48.468H14.4192L14.2779 47.6559H14.2307C13.9789 47.9762 13.6647 48.2222 13.2872 48.3932C12.9097 48.5645 12.4903 48.6505 12.0294 48.6505C11.6415 48.6505 11.2929 48.5812 10.9835 48.4429C10.6742 48.3051 10.415 48.1199 10.2052 47.8878C9.99576 47.6559 9.83296 47.3906 9.71776 47.0923C9.60236 46.7937 9.54466 46.4847 9.54466 46.1643C9.54466 45.6338 9.65216 45.1751 9.86706 44.7883C10.0818 44.4013 10.3862 44.0783 10.779 43.8188C11.1721 43.5589 11.6465 43.3685 12.2026 43.2466C12.7577 43.1253 13.3762 43.0649 14.0577 43.0649V42.9487C14.0577 42.838 14.0392 42.7221 14.0025 42.6004C13.9661 42.4787 13.898 42.3656 13.7981 42.2608C13.6986 42.1555 13.5573 42.07 13.3738 42.0036C13.1901 41.9376 12.9516 41.9043 12.6581 41.9043C12.2597 41.9043 11.8692 41.965 11.4869 42.0865C11.1044 42.2083 10.787 42.3519 10.5355 42.5172L10.0952 40.8933C10.3679 40.7387 10.7583 40.5809 11.2665 40.421C11.7753 40.2607 12.3806 40.1805 13.0829 40.1805C13.7219 40.1805 14.2596 40.2743 14.6945 40.4624C15.1295 40.6498 15.4781 40.9014 15.7403 41.2165C16.0023 41.5314 16.1883 41.9011 16.2982 42.3266C16.4084 42.7526 16.4634 43.2028 16.4634 43.6778V46.4958ZM14.1363 44.6388C13.8218 44.6388 13.5283 44.6587 13.256 44.697C12.9834 44.7355 12.7471 44.8049 12.5483 44.9046C12.3491 45.0032 12.1915 45.1363 12.0767 45.3021C11.9613 45.4678 11.9035 45.6726 11.9035 45.9153C11.9035 46.2362 11.9927 46.4758 12.1709 46.6367C12.3491 46.7966 12.5744 46.8767 12.8471 46.8767C13.1509 46.8767 13.413 46.7856 13.6329 46.603C13.8533 46.4208 14.0055 46.2027 14.0891 45.9489C14.1203 45.8159 14.1363 45.6726 14.1363 45.5175V44.6388ZM17.7372 47.0259L20.1586 43.8271C20.3786 43.5508 20.5832 43.305 20.772 43.0896C20.9606 42.8741 21.1648 42.6393 21.3852 42.3849V42.3519H18.0044V40.3629H24.2943V41.8712L21.9825 44.9376C21.7731 45.2027 21.5658 45.4619 21.3614 45.7162C21.157 45.9702 20.9452 46.2081 20.7247 46.4288V46.4627H24.42V48.468H17.7372V47.0259ZM28.2092 48.468H25.8038V37.2964H28.2092V48.468ZM34.9547 37.1139C35.7727 37.1139 36.4932 37.2635 37.117 37.5615C37.7407 37.8597 38.2649 38.2663 38.6896 38.78C39.1142 39.2938 39.4365 39.8931 39.6561 40.5784C39.8768 41.2636 39.9863 41.9927 39.9863 42.7661C39.9863 43.6837 39.8608 44.5068 39.6092 45.2359C39.3576 45.9652 39.0039 46.5813 38.5478 47.084C38.0919 47.5866 37.5442 47.9735 36.9047 48.2442C36.2656 48.515 35.5574 48.6505 34.7818 48.6505C33.9958 48.6505 33.2932 48.5034 32.6752 48.211C32.0565 47.9181 31.5352 47.5151 31.1102 47.0011C30.6856 46.4873 30.361 45.885 30.1357 45.1941C29.9103 44.5041 29.7975 43.7606 29.7975 42.9652C29.7975 42.1255 29.9209 41.349 30.1671 40.6365C30.4132 39.9235 30.7596 39.3074 31.205 38.7883C31.6504 38.2688 32.1904 37.8597 32.8241 37.5615C33.4585 37.2635 34.1689 37.1139 34.9547 37.1139ZM34.8921 39.1198C34.4833 39.1198 34.1213 39.2163 33.807 39.4098C33.4928 39.6032 33.2255 39.8685 33.0052 40.2051C32.785 40.5425 32.6173 40.943 32.5022 41.4071C32.3868 41.8712 32.3291 42.3739 32.3291 42.9156C32.3291 43.4677 32.3895 43.9708 32.51 44.4237C32.6307 44.8764 32.8008 45.269 33.0209 45.6003C33.2409 45.9321 33.5112 46.1891 33.8303 46.3714C34.1503 46.5538 34.5094 46.6446 34.9076 46.6446C35.3167 46.6446 35.6779 46.5481 35.9926 46.3548C36.3075 46.1613 36.5719 45.8961 36.7867 45.5589C37.0017 45.2222 37.1667 44.8217 37.2821 44.3572C37.3974 43.8934 37.4552 43.3905 37.4552 42.849C37.4552 42.3519 37.4003 41.8766 37.29 41.4235C37.1797 40.9705 37.0149 40.573 36.7947 40.2302C36.5751 39.8878 36.3046 39.6168 35.9849 39.4181C35.6651 39.2193 35.3012 39.1198 34.8921 39.1198ZM41.5593 37.4457C41.9468 37.3793 42.4166 37.3239 42.9664 37.2799C43.5169 37.2356 44.1117 37.2133 44.7513 37.2133C45.5376 37.2133 46.2111 37.2799 46.7716 37.4127C47.3326 37.5448 47.8016 37.7715 48.1791 38.0922C48.8291 38.6444 49.1539 39.424 49.1539 40.4293C49.1539 40.7827 49.0992 41.1079 48.9888 41.4071C48.8788 41.7055 48.7346 41.9708 48.5565 42.2029C48.3785 42.4347 48.1791 42.6335 47.9595 42.7996C47.7389 42.9652 47.5136 43.0921 47.2829 43.1808V43.2297C47.6496 43.3852 47.9434 43.6417 48.1633 44.0012C48.3832 44.3603 48.5616 44.7989 48.6983 45.3187C48.7819 45.6391 48.863 45.9625 48.9416 46.2885C49.0206 46.6147 49.0992 46.9207 49.1778 47.2083C49.2563 47.4955 49.327 47.7499 49.3897 47.971C49.4528 48.1918 49.5105 48.3574 49.5627 48.468H47.1094C46.9419 48.1367 46.696 47.2687 46.3708 45.8655C46.2975 45.5234 46.2135 45.2359 46.1191 45.0032C46.025 44.7718 45.9096 44.5895 45.7734 44.4569C45.637 44.3238 45.477 44.2273 45.2936 44.1669C45.1103 44.1061 44.8981 44.0758 44.6572 44.0758H43.9333V48.468H41.5593V37.4457ZM43.9333 42.2524H44.8771C45.4744 42.2524 45.941 42.1087 46.2763 41.821C46.6116 41.534 46.7796 41.1419 46.7796 40.6444C46.7796 40.1253 46.6253 39.7385 46.3159 39.4843C46.007 39.2305 45.574 39.0974 45.0184 39.0868C44.725 39.0868 44.4917 39.0948 44.3186 39.1114C44.146 39.1281 44.0173 39.1471 43.9333 39.1695V42.2524Z" fill="#A79ECD" stroke="#A79ECD" stroke-width="0.25" stroke-miterlimit="22.9256" stroke-linecap="round" stroke-linejoin="round"/>
<path d="M0.740173 50.5968H1.21301V51.5812H1.22302C1.2457 51.5372 1.26982 51.4957 1.29455 51.4558C1.31982 51.4159 1.34371 51.3767 1.36681 51.3364L1.8463 50.5968H2.43248L1.73339 51.5451L2.4699 52.8232H1.91213L1.3947 51.862L1.21301 52.0965V52.8232H0.740173V50.5968ZM3.15604 52.252L3.0056 52.8232H2.51056L3.15604 50.5968H3.7829L4.43775 52.8232H3.9238L3.76092 52.252H3.15604ZM3.69164 51.8748L3.5602 51.403C3.54129 51.3364 3.52341 51.2653 3.50531 51.1881C3.48765 51.1112 3.47038 51.0397 3.4539 50.9735H3.44738C3.43081 51.0397 3.41446 51.1114 3.39895 51.1898C3.38299 51.268 3.36687 51.3391 3.35039 51.403L3.22522 51.8748H3.69164ZM4.5847 52.5525L5.59049 51.0264V51.013H4.6788V50.5968H6.21143V50.8877L5.2272 52.3937V52.4068H6.22694V52.8232H4.5847V52.5525ZM7.01956 52.252L6.86893 52.8232H6.37389L7.01956 50.5968H7.64633L8.30089 52.8232H7.78724L7.62435 52.252H7.01956ZM7.55548 51.8748L7.42376 51.403C7.40504 51.3364 7.38665 51.2653 7.36906 51.1881C7.3514 51.1112 7.33391 51.0397 7.31705 50.9735H7.31081C7.29405 51.0397 7.27822 51.1114 7.26238 51.1898C7.24696 51.268 7.23039 51.3391 7.21395 51.403L7.08866 51.8748H7.55548ZM8.58325 50.5968H9.05628V51.5812H9.06559C9.08868 51.5372 9.11251 51.4957 9.13766 51.4558C9.16299 51.4159 9.18679 51.3767 9.20979 51.3364L9.68926 50.5968H10.2752L9.57646 51.5451L10.3128 52.8232H9.75486L9.2379 51.862L9.05628 52.0965V52.8232H8.58325V50.5968ZM10.9865 50.5968V51.4524H11.7732V50.5968H12.2494V52.8232H11.7732V51.8916H10.9865V52.8232H10.5071V50.5968H10.9865ZM13.7782 52.8232H13.2987V50.5968H13.7782V52.8232ZM14.1921 52.8232V50.5968H14.75L15.1884 51.4127C15.251 51.5318 15.3122 51.6572 15.3717 51.7894C15.4313 51.9217 15.4849 52.0502 15.533 52.1755H15.5427C15.5258 52.0281 15.5149 51.8782 15.5096 51.7267C15.5045 51.5743 15.5019 51.414 15.5019 51.2444V50.5968H15.9403V52.8232H15.4392L14.9878 51.9643C14.9254 51.8454 14.8617 51.7177 14.7969 51.5812C14.7322 51.4447 14.6735 51.3107 14.6211 51.1779L14.6118 51.1817C14.6182 51.3291 14.6228 51.4823 14.6261 51.6407C14.6292 51.7993 14.6306 51.9696 14.6306 52.1528V52.8232H14.1921ZM16.3697 52.3047C16.4346 52.3401 16.5135 52.3716 16.6066 52.4005C16.6991 52.429 16.7968 52.4434 16.8994 52.4434C17.01 52.4434 17.0938 52.4214 17.1502 52.3774C17.2065 52.3333 17.2345 52.2748 17.2345 52.2022C17.2345 52.1318 17.2076 52.0737 17.1532 52.0288C17.0989 51.9837 17.0078 51.9369 16.8805 51.8882C16.705 51.8248 16.5648 51.7396 16.4591 51.6339C16.3536 51.5283 16.3009 51.3941 16.3009 51.2311C16.3009 51.1365 16.3194 51.0483 16.3555 50.9667C16.392 50.8853 16.4451 50.8142 16.5138 50.7537C16.5828 50.6934 16.6664 50.6459 16.7645 50.6117C16.8629 50.5776 16.9747 50.5604 17.0996 50.5604C17.2191 50.5604 17.3228 50.5715 17.4116 50.5934C17.5003 50.6159 17.576 50.6421 17.6387 50.673L17.5324 51.0792C17.4905 51.057 17.4326 51.0339 17.3583 51.01C17.284 50.9857 17.1949 50.9735 17.0903 50.9735C16.9859 50.9735 16.9087 50.9952 16.8585 51.0377C16.8085 51.0807 16.7832 51.1304 16.7832 51.1881C16.7832 51.2236 16.7911 51.2548 16.807 51.2821C16.8227 51.3099 16.8461 51.3352 16.8774 51.3585C16.9087 51.3813 16.9487 51.4045 16.9981 51.4276C17.0471 51.4507 17.1062 51.4755 17.175 51.5021C17.3629 51.5743 17.5014 51.6641 17.5901 51.7696C17.6792 51.8748 17.7234 52.0076 17.7234 52.166C17.7234 52.2583 17.706 52.347 17.672 52.4317C17.6373 52.5164 17.5851 52.5905 17.515 52.6529C17.4451 52.7159 17.3565 52.7661 17.2486 52.8033C17.1412 52.8406 17.0154 52.8595 16.8712 52.8595C16.7501 52.8595 16.635 52.8452 16.5265 52.8166C16.4181 52.7879 16.3332 52.7558 16.2727 52.7208L16.3697 52.3047ZM18.4536 51.0194H17.8863V50.5968H19.5095V51.0194H18.9331V52.8232H18.4536V51.0194ZM20.2428 52.8232H19.7633V50.5968H20.2428V52.8232ZM21.0636 51.0194H20.4965V50.5968H22.1197V51.0194H21.5432V52.8232H21.0636V51.0194ZM22.8497 50.5968V51.8782C22.8497 52.0722 22.8827 52.2168 22.9484 52.3128C23.0141 52.4085 23.1088 52.4567 23.2321 52.4567C23.3572 52.4567 23.4535 52.4096 23.5203 52.3162C23.5869 52.2226 23.6205 52.0768 23.6205 51.8782V50.5968H24.0965V51.8454C24.0965 52.1892 24.0191 52.4439 23.8634 52.6102C23.7077 52.7763 23.4923 52.8595 23.2163 52.8595C22.9492 52.8595 22.7411 52.7783 22.5926 52.6152C22.4444 52.4522 22.37 52.1935 22.37 51.8388V50.5968H22.8497ZM24.9178 51.0194H24.3507V50.5968H25.9737V51.0194H25.397V52.8232H24.9178V51.0194ZM27.4842 51.8817H26.7068V52.4103H27.5749V52.8232H26.2279V50.5968H27.5311V51.01H26.7068V51.4721H27.4842V51.8817ZM29.4645 50.5604C29.6275 50.5604 29.7709 50.5905 29.8951 50.6498C30.0197 50.7093 30.1241 50.7902 30.2084 50.8926C30.2934 50.9952 30.3576 51.1145 30.4014 51.2509C30.4453 51.3874 30.4668 51.5328 30.4668 51.6868C30.4668 51.8696 30.4422 52.0334 30.3922 52.1793C30.3422 52.3245 30.2711 52.4472 30.1802 52.5472C30.0894 52.6475 29.9802 52.7248 29.8528 52.7786C29.7254 52.8327 29.5845 52.8595 29.4303 52.8595C29.2734 52.8595 29.1337 52.8303 29.01 52.7718C28.8868 52.7136 28.7832 52.6335 28.6983 52.5309C28.6135 52.4286 28.5492 52.3085 28.5041 52.1711C28.4594 52.0329 28.4368 51.8852 28.4368 51.7267C28.4368 51.5592 28.461 51.4045 28.5107 51.2627C28.5593 51.1206 28.6283 50.9979 28.717 50.8941C28.8057 50.7908 28.9135 50.7093 29.0396 50.6498C29.1663 50.5905 29.3078 50.5604 29.4645 50.5604ZM29.4519 50.9601C29.3704 50.9601 29.2987 50.9796 29.236 51.0181C29.1733 51.0567 29.1198 51.1096 29.0757 51.1765C29.0321 51.2436 28.9987 51.3236 28.9755 51.4159C28.9525 51.5087 28.9409 51.6088 28.9409 51.7164C28.9409 51.8267 28.9534 51.927 28.9769 52.0171C29.0012 52.1075 29.0354 52.1857 29.079 52.252C29.123 52.3177 29.1769 52.3689 29.2402 52.4055C29.3038 52.4415 29.3759 52.4598 29.4549 52.4598C29.5366 52.4598 29.6085 52.4408 29.6711 52.402C29.7343 52.3632 29.7866 52.3109 29.8296 52.2437C29.8721 52.1759 29.9053 52.0965 29.9281 52.0042C29.9511 51.9114 29.9627 51.8115 29.9627 51.7035C29.9627 51.6045 29.9521 51.5097 29.93 51.4192C29.9077 51.3291 29.8749 51.2498 29.8309 51.1817C29.7873 51.1133 29.7333 51.0594 29.6698 51.0194C29.6064 50.9801 29.5331 50.9601 29.4519 50.9601ZM30.7808 50.5968H32.0715V51.01H31.2597V51.5185H32.0183V51.9281H31.2597V52.8232H30.7808V50.5968ZM33.9952 50.5604C34.1586 50.5604 34.3018 50.5905 34.4262 50.6498C34.5508 50.7093 34.655 50.7902 34.7395 50.8926C34.824 50.9952 34.8885 51.1145 34.9324 51.2509C34.9764 51.3874 34.998 51.5328 34.998 51.6868C34.998 51.8696 34.9733 52.0334 34.923 52.1793C34.873 52.3245 34.8022 52.4472 34.7114 52.5472C34.6206 52.6475 34.5114 52.7248 34.384 52.7786C34.2564 52.8327 34.1156 52.8595 33.9607 52.8595C33.8044 52.8595 33.6643 52.8303 33.5411 52.7718C33.4178 52.7136 33.3141 52.6335 33.2291 52.5309C33.1447 52.4286 33.0799 52.3085 33.0348 52.1711C32.9905 52.0329 32.9675 51.8852 32.9675 51.7267C32.9675 51.5592 32.9918 51.4045 33.0415 51.2627C33.0904 51.1206 33.1595 50.9979 33.2482 50.8941C33.3369 50.7908 33.4446 50.7093 33.5706 50.6498C33.6974 50.5905 33.8389 50.5604 33.9952 50.5604ZM33.9826 50.9601C33.9013 50.9601 33.8291 50.9796 33.7671 51.0181C33.704 51.0567 33.651 51.1096 33.6066 51.1765C33.5629 51.2436 33.5298 51.3236 33.5065 51.4159C33.4833 51.5087 33.4721 51.6088 33.4721 51.7164C33.4721 51.8267 33.484 51.927 33.5083 52.0171C33.5319 52.1075 33.5661 52.1857 33.6101 52.252C33.654 52.3177 33.708 52.3689 33.7713 52.4055C33.8351 52.4415 33.9065 52.4598 33.986 52.4598C34.0678 52.4598 34.1396 52.4408 34.2023 52.402C34.2649 52.3632 34.3178 52.3109 34.3607 52.2437C34.403 52.1759 34.4365 52.0965 34.4593 52.0042C34.4821 51.9114 34.4937 51.8115 34.4937 51.7035C34.4937 51.6045 34.4829 51.5097 34.4606 51.4192C34.4388 51.3291 34.4057 51.2498 34.3621 51.1817C34.318 51.1133 34.2642 51.0594 34.2005 51.0194C34.1372 50.9801 34.0642 50.9601 33.9826 50.9601ZM35.3113 52.8232V50.5968H35.8694L36.3083 51.4127C36.3703 51.5318 36.4315 51.6572 36.4914 51.7894C36.5505 51.9217 36.6046 52.0502 36.6525 52.1755H36.6619C36.6453 52.0281 36.6345 51.8782 36.6291 51.7267C36.6237 51.5743 36.6215 51.414 36.6215 51.2444V50.5968H37.0595V52.8232H36.5588L36.1072 51.9643C36.0447 51.8454 35.9809 51.7177 35.9162 51.5812C35.8514 51.4447 35.7929 51.3107 35.7408 51.1779L35.7314 51.1817C35.738 51.3291 35.7424 51.4823 35.7453 51.6407C35.7486 51.7993 35.7499 51.9696 35.7499 52.1528V52.8232H35.3113ZM39.0251 52.7603C38.9803 52.7847 38.9119 52.8071 38.8178 52.8281C38.7244 52.8493 38.6123 52.8595 38.4825 52.8595C38.3008 52.8595 38.1403 52.8311 38.0015 52.7737C37.8628 52.7163 37.7474 52.638 37.6554 52.5391C37.5635 52.4401 37.4939 52.3223 37.4471 52.1857C37.3998 52.049 37.3764 51.9017 37.3764 51.7431C37.3764 51.5537 37.4067 51.3852 37.4673 51.2376C37.5279 51.0901 37.61 50.9661 37.7132 50.8662C37.8166 50.766 37.9385 50.6899 38.0787 50.6383C38.2179 50.5867 38.3685 50.5604 38.5297 50.5604C38.6545 50.5604 38.7626 50.571 38.8524 50.592C38.9421 50.6129 39.0081 50.6357 39.0495 50.6596L38.9523 51.0594C38.9046 51.0374 38.8473 51.0181 38.7803 51.0017C38.7128 50.9849 38.6368 50.9769 38.5514 50.9769C38.4572 50.9769 38.3692 50.9923 38.2868 51.023C38.2038 51.054 38.1328 51.0992 38.0722 51.16C38.0117 51.221 37.9637 51.2973 37.9291 51.3896C37.8952 51.4823 37.8779 51.5896 37.8779 51.7133C37.8779 51.9379 37.9371 52.115 38.0546 52.2451C38.1728 52.375 38.339 52.4401 38.5546 52.4401C38.6278 52.4401 38.7002 52.4327 38.772 52.4183C38.8448 52.4042 38.9046 52.3871 38.9523 52.3674L39.0251 52.7603ZM40.2685 50.5604C40.4318 50.5604 40.5753 50.5905 40.6997 50.6498C40.8237 50.7093 40.9283 50.7902 41.0126 50.8926C41.0973 50.9952 41.1612 51.1145 41.2055 51.2509C41.2491 51.3874 41.2714 51.5328 41.2714 51.6868C41.2714 51.8696 41.2462 52.0334 41.1961 52.1793C41.1457 52.3245 41.0757 52.4472 40.9845 52.5472C40.8936 52.6475 40.7844 52.7248 40.6572 52.7786C40.5295 52.8327 40.3889 52.8595 40.2343 52.8595C40.0774 52.8595 39.9375 52.8303 39.8143 52.7718C39.6909 52.7136 39.5868 52.6335 39.5024 52.5309C39.4177 52.4286 39.3532 52.3085 39.3081 52.1711C39.2633 52.0329 39.241 51.8852 39.241 51.7267C39.241 51.5592 39.2656 51.4045 39.3142 51.2627C39.3636 51.1206 39.4325 50.9979 39.5212 50.8941C39.6102 50.7908 39.7176 50.7093 39.8442 50.6498C39.9703 50.5905 40.112 50.5604 40.2685 50.5604ZM40.2566 50.9601C40.1748 50.9601 40.1027 50.9796 40.0399 51.0181C39.9769 51.0567 39.9238 51.1096 39.8802 51.1765C39.8362 51.2436 39.803 51.3236 39.7796 51.4159C39.7569 51.5087 39.7454 51.6088 39.7454 51.7164C39.7454 51.8267 39.7572 51.927 39.7811 52.0171C39.806 52.1075 39.8395 52.1857 39.8831 52.252C39.9267 52.3177 39.9808 52.3689 40.0446 52.4055C40.1084 52.4415 40.1798 52.4598 40.2591 52.4598C40.3406 52.4598 40.4127 52.4408 40.4754 52.402C40.5382 52.3632 40.5908 52.3109 40.6337 52.2437C40.6766 52.1759 40.7091 52.0965 40.7325 52.0042C40.7556 51.9114 40.7671 51.8115 40.7671 51.7035C40.7671 51.6045 40.7556 51.5097 40.7339 51.4192C40.7119 51.3291 40.6787 51.2498 40.6352 51.1817C40.5915 51.1133 40.5378 51.0594 40.474 51.0194C40.4098 50.9801 40.3374 50.9601 40.2566 50.9601ZM41.5844 50.5968H42.0639V52.4005H42.9039V52.8232H41.5844V50.5968ZM44.1166 50.5604C44.2796 50.5604 44.4227 50.5905 44.5475 50.6498C44.6718 50.7093 44.7761 50.7902 44.8608 50.8926C44.9451 50.9952 45.0093 51.1145 45.0536 51.2509C45.0973 51.3874 45.1192 51.5328 45.1192 51.6868C45.1192 51.8696 45.0937 52.0334 45.0439 52.1793C44.9938 52.3245 44.9235 52.4472 44.8326 52.5472C44.7417 52.6475 44.6326 52.7248 44.5053 52.7786C44.3776 52.8327 44.2367 52.8595 44.0821 52.8595C43.9249 52.8595 43.7853 52.8303 43.6621 52.7718C43.5391 52.7136 43.4349 52.6335 43.3506 52.5309C43.2659 52.4286 43.201 52.3085 43.1559 52.1711C43.1108 52.0329 43.0889 51.8852 43.0889 51.7267C43.0889 51.5592 43.113 51.4045 43.1623 51.2627C43.2114 51.1206 43.2799 50.9979 43.3693 50.8941C43.458 50.7908 43.5651 50.7093 43.692 50.6498C43.8185 50.5905 43.9599 50.5604 44.1166 50.5604ZM44.1036 50.9601C44.0226 50.9601 43.9504 50.9796 43.8877 51.0181C43.825 51.0567 43.772 51.1096 43.7277 51.1765C43.684 51.2436 43.6508 51.3236 43.6278 51.4159C43.6047 51.5087 43.5932 51.6088 43.5932 51.7164C43.5932 51.8267 43.6054 51.927 43.6293 52.0171C43.6531 52.1075 43.6869 52.1857 43.7312 52.252C43.7749 52.3177 43.8289 52.3689 43.8924 52.4055C43.9559 52.4415 44.0276 52.4598 44.1073 52.4598C44.1888 52.4598 44.2605 52.4408 44.3233 52.402C44.386 52.3632 44.4389 52.3109 44.4812 52.2437C44.5241 52.1759 44.5572 52.0965 44.5803 52.0042C44.603 51.9114 44.6149 51.8115 44.6149 51.7035C44.6149 51.6045 44.6037 51.5097 44.5817 51.4192C44.56 51.3291 44.5269 51.2498 44.4833 51.1817C44.4389 51.1133 44.3856 51.0594 44.3218 51.0194C44.258 50.9801 44.1855 50.9601 44.1036 50.9601ZM47.1969 52.7208C47.159 52.7338 47.1147 52.7479 47.0632 52.7614C47.0123 52.7763 46.9565 52.7901 46.8945 52.8033C46.8328 52.8166 46.7675 52.8268 46.6987 52.8348C46.6295 52.8424 46.5606 52.8463 46.4914 52.8463C46.297 52.8463 46.1302 52.8213 45.9902 52.7703C45.85 52.7197 45.7314 52.6448 45.6334 52.5457C45.5346 52.4487 45.46 52.3309 45.4091 52.1918C45.3579 52.0536 45.3334 51.9017 45.3352 51.7367C45.3352 51.5516 45.3663 51.3869 45.4275 51.2427C45.4895 51.0986 45.5735 50.9769 45.6802 50.8773C45.7866 50.7786 45.9135 50.7029 46.0605 50.6517C46.2076 50.5996 46.3685 50.5737 46.5415 50.5737C46.6795 50.5737 46.7989 50.5855 46.8992 50.6083C46.9993 50.6319 47.0757 50.6565 47.1274 50.6829L47.0275 51.0857C46.9691 51.0594 46.9013 51.037 46.8253 51.0181C46.7491 50.9993 46.6526 50.9899 46.5358 50.9899C46.4351 50.9899 46.3428 51.0042 46.2581 51.0346C46.1738 51.0643 46.1002 51.1087 46.0375 51.1685C45.9747 51.2278 45.9254 51.3026 45.89 51.3931C45.8547 51.4832 45.8366 51.5891 45.8366 51.71C45.8366 51.8248 45.8529 51.927 45.8854 52.0171C45.9178 52.1075 45.9633 52.184 46.0216 52.247C46.0804 52.3097 46.15 52.3576 46.2318 52.3906C46.3133 52.4236 46.4027 52.4401 46.5011 52.4401C46.6161 52.4401 46.6944 52.429 46.7358 52.4068V51.9413H46.4103V51.5482H47.1969V52.7208ZM48.0582 52.8232V51.9114L47.3909 50.5968H47.9363L48.1527 51.132C48.1858 51.2137 48.2147 51.2868 48.2384 51.3516C48.2626 51.4166 48.2882 51.4852 48.3156 51.558H48.3217C48.3448 51.4877 48.3693 51.4188 48.3953 51.3516C48.4216 51.2843 48.4497 51.2114 48.4814 51.132L48.6945 50.5968H49.2299L48.5348 51.895V52.8232H48.0582ZM13.5217 56.0405L13.3713 56.6116H12.8762L13.5217 54.3854H14.1482L14.8033 56.6116H14.2892L14.1262 56.0405H13.5217ZM14.0572 55.6638L13.9259 55.1915C13.907 55.1252 13.8887 55.0538 13.871 54.9767C13.8533 54.8992 13.8359 54.828 13.8195 54.762H13.8131C13.7964 54.828 13.7801 54.9003 13.7646 54.9781C13.7487 55.0565 13.7324 55.1275 13.716 55.1915L13.5905 55.6638H14.0572ZM15.0852 56.6116V54.3854H15.6428L16.0818 55.2013C16.1444 55.3202 16.2052 55.4457 16.2648 55.5779C16.3243 55.7102 16.3783 55.8386 16.4264 55.9645H16.4357C16.4192 55.8168 16.4079 55.6673 16.4029 55.5152C16.3974 55.3632 16.3951 55.2025 16.3951 55.033V54.3854H16.8338V56.6116H16.3321L15.8807 55.7531C15.8185 55.6341 15.7546 55.5065 15.6898 55.3696C15.6252 55.2332 15.5665 55.099 15.5145 54.9669L15.5048 54.9703C15.5112 55.1177 15.516 55.2709 15.5193 55.4292C15.5221 55.5878 15.5241 55.7584 15.5241 55.9411V56.6116H15.0852ZM17.2473 54.4149C17.3349 54.3998 17.4343 54.3885 17.5451 54.3808C17.6556 54.3728 17.7719 54.369 17.8929 54.369C18.0933 54.369 18.2621 54.3885 18.3986 54.4268C18.5358 54.4651 18.6551 54.5252 18.7573 54.6069C18.8682 54.6929 18.9554 54.8042 19.0191 54.9422C19.0829 55.0797 19.1148 55.2473 19.1148 55.4457C19.1148 55.6592 19.0817 55.84 19.016 55.9876C18.9504 56.1345 18.8663 56.2551 18.764 56.3474C18.651 56.4466 18.5128 56.5192 18.3486 56.5655C18.1846 56.6116 17.9981 56.6347 17.7894 56.6347C17.664 56.6347 17.5572 56.6317 17.4698 56.6249C17.382 56.6184 17.3078 56.6104 17.2473 56.6017V54.4149ZM17.7268 56.2319C17.7476 56.2361 17.7732 56.2391 17.8035 56.2403C17.8338 56.2415 17.8633 56.2417 17.8929 56.2417C18.0014 56.2417 18.0995 56.2262 18.1874 56.1953C18.275 56.1647 18.3501 56.1175 18.4127 56.0534C18.4756 55.9899 18.5234 55.9083 18.5569 55.809C18.5904 55.7102 18.6071 55.5942 18.6071 55.4624C18.6092 55.2309 18.5501 55.0553 18.4302 54.9353C18.3101 54.8155 18.1478 54.7554 17.943 54.7554C17.8885 54.7554 17.8443 54.7578 17.8095 54.762C17.7753 54.7665 17.7476 54.7708 17.7268 54.7752V56.2319ZM20.0611 54.4149C20.1381 54.402 20.2315 54.3911 20.3415 54.3823C20.4512 54.3736 20.5696 54.369 20.6969 54.369C20.8538 54.369 20.9879 54.3823 21.0997 54.4081C21.2115 54.4352 21.3047 54.4804 21.3801 54.5437C21.5097 54.6541 21.5745 54.8095 21.5745 55.0097C21.5745 55.08 21.5638 55.145 21.5418 55.2047C21.5196 55.2635 21.491 55.3168 21.4554 55.3632C21.4199 55.4095 21.3801 55.4491 21.3362 55.4821C21.2926 55.5152 21.2476 55.5406 21.2018 55.5581V55.5679C21.2744 55.5988 21.3333 55.65 21.3769 55.7216C21.4209 55.7935 21.4561 55.8807 21.4836 55.9842C21.5002 56.048 21.5164 56.1121 21.5325 56.1772C21.548 56.2421 21.5638 56.3033 21.5792 56.3607C21.5947 56.4179 21.6088 56.4687 21.6213 56.5129C21.6339 56.5565 21.6456 56.5899 21.656 56.6116H21.1671C21.1336 56.5458 21.0845 56.3729 21.02 56.0932C21.0053 56.0249 20.9883 55.9675 20.97 55.9215C20.9507 55.8751 20.9277 55.8386 20.9007 55.8124C20.8736 55.7857 20.8417 55.7667 20.8053 55.7542C20.7688 55.7426 20.7265 55.7364 20.6783 55.7364H20.5341V56.6116H20.0611V54.4149ZM20.5341 55.3731H20.7223C20.8412 55.3731 20.9342 55.3444 21.001 55.2873C21.068 55.2302 21.1011 55.1519 21.1011 55.0526C21.1011 54.9494 21.0704 54.8722 21.0088 54.8213C20.9472 54.7708 20.861 54.7445 20.7503 54.7423C20.692 54.7423 20.6455 54.7438 20.6109 54.7471C20.5766 54.7501 20.551 54.7545 20.5341 54.7586V55.3731ZM22.4109 56.0405L22.2607 56.6116H21.7657L22.4109 54.3854H23.0379L23.6924 56.6116H23.1789L23.0158 56.0405H22.4109ZM22.9469 55.6638L22.8154 55.1915C22.7966 55.1252 22.7782 55.0538 22.7602 54.9767C22.743 54.8992 22.7256 54.828 22.7086 54.762H22.7025C22.6855 54.828 22.6694 54.9003 22.6538 54.9781C22.6381 55.0565 22.6222 55.1275 22.6051 55.1915L22.4802 55.6638H22.9469ZM23.9747 54.4149C24.0624 54.3998 24.1617 54.3885 24.2723 54.3808C24.3831 54.3728 24.4993 54.369 24.6204 54.369C24.8204 54.369 24.9894 54.3885 25.1262 54.4268C25.2629 54.4651 25.3827 54.5252 25.485 54.6069C25.5956 54.6929 25.6829 54.8042 25.7463 54.9422C25.8104 55.0797 25.8421 55.2473 25.8421 55.4457C25.8421 55.6592 25.809 55.84 25.7435 55.9876C25.6776 56.1345 25.5935 56.2551 25.4914 56.3474C25.3784 56.4466 25.2401 56.5192 25.0759 56.5655C24.9123 56.6116 24.726 56.6347 24.5169 56.6347C24.3912 56.6347 24.285 56.6317 24.1972 56.6249C24.1092 56.6184 24.0352 56.6104 23.9747 56.6017V54.4149ZM24.4542 56.2319C24.4746 56.2361 24.5007 56.2391 24.5309 56.2403C24.5612 56.2415 24.5908 56.2417 24.6204 56.2417C24.7288 56.2417 24.8267 56.2262 24.9147 56.1953C25.0025 56.1647 25.0778 56.1175 25.1403 56.0534C25.2027 55.9899 25.2513 55.9083 25.2843 55.809C25.318 55.7102 25.3348 55.5942 25.3348 55.4624C25.3365 55.2309 25.2774 55.0553 25.1574 54.9353C25.0372 54.8155 24.8753 54.7554 24.6703 54.7554C24.6158 54.7554 24.5715 54.7578 24.5373 54.762C24.5028 54.7665 24.4746 54.7708 24.4542 54.7752V56.2319ZM26.6349 56.6116H26.1554V54.3854H26.6349V56.6116ZM27.9791 54.3493C28.1422 54.3493 28.2854 54.3789 28.41 54.4384C28.5344 54.498 28.6388 54.5789 28.7234 54.681C28.8079 54.7837 28.8719 54.9029 28.9163 55.0395C28.9599 55.1758 28.9818 55.3213 28.9818 55.4752C28.9818 55.6581 28.9567 55.8222 28.9065 55.9675C28.8564 56.1131 28.786 56.2357 28.6952 56.3359C28.6044 56.436 28.4953 56.5131 28.3678 56.5671C28.2403 56.6211 28.0991 56.648 27.9446 56.648C27.788 56.648 27.6482 56.6189 27.5249 56.5605C27.4017 56.502 27.2975 56.422 27.213 56.3194C27.1285 56.2171 27.0637 56.097 27.0186 55.9594C26.9739 55.8219 26.9511 55.6737 26.9511 55.5152C26.9511 55.3476 26.9757 55.1929 27.025 55.0512C27.0744 54.909 27.1433 54.7864 27.2317 54.683C27.3207 54.5791 27.4285 54.498 27.5546 54.4384C27.681 54.3789 27.8228 54.3493 27.9791 54.3493ZM27.9664 54.7487C27.8847 54.7487 27.8133 54.7682 27.7506 54.8068C27.6876 54.8452 27.6345 54.898 27.5908 54.9653C27.5468 55.0322 27.5133 55.1123 27.4905 55.2047C27.4676 55.2969 27.4559 55.3973 27.4559 55.5053C27.4559 55.6154 27.4679 55.7155 27.4918 55.8059C27.5158 55.8961 27.5495 55.9743 27.5939 56.0405C27.6376 56.1065 27.6915 56.1574 27.7552 56.194C27.8192 56.2295 27.8904 56.2483 27.97 56.2483C28.0512 56.2483 28.1235 56.2293 28.1861 56.1905C28.2488 56.1521 28.3016 56.0992 28.3445 56.0319C28.3868 55.9648 28.4199 55.885 28.4431 55.7925C28.4656 55.6999 28.4774 55.6 28.4774 55.492C28.4774 55.3927 28.4663 55.2983 28.4446 55.2081C28.4227 55.1177 28.3896 55.0383 28.3459 54.9703C28.3016 54.9019 28.2481 54.8479 28.184 54.8084C28.1206 54.7688 28.0481 54.7487 27.9664 54.7487ZM29.2951 54.3854H29.7746V56.189H30.6147V56.6116H29.2951V54.3854ZM31.827 54.3493C31.9899 54.3493 32.1336 54.3789 32.2582 54.4384C32.3821 54.498 32.4867 54.5789 32.5715 54.681C32.656 54.7837 32.72 54.9029 32.7637 55.0395C32.808 55.1758 32.8299 55.3213 32.8299 55.4752C32.8299 55.6581 32.8046 55.8222 32.7546 55.9675C32.7046 56.1131 32.6339 56.2357 32.5434 56.3359C32.4518 56.436 32.3434 56.5131 32.2154 56.5671C32.0885 56.6211 31.9474 56.648 31.7928 56.648C31.6357 56.648 31.4959 56.6189 31.3726 56.5605C31.2491 56.502 31.1456 56.422 31.0608 56.3194C30.9766 56.2171 30.9114 56.097 30.8664 55.9594C30.8217 55.8219 30.7992 55.6737 30.7992 55.5152C30.7992 55.3476 30.8239 55.1929 30.8731 55.0512C30.922 54.909 30.9907 54.7864 31.0794 54.683C31.1688 54.5791 31.2758 54.498 31.4026 54.4384C31.5287 54.3789 31.6702 54.3493 31.827 54.3493ZM31.8145 54.7487C31.7332 54.7487 31.661 54.7682 31.5984 54.8068C31.5357 54.8452 31.4822 54.898 31.4385 54.9653C31.3948 55.0322 31.3611 55.1123 31.3378 55.2047C31.3153 55.2969 31.3041 55.3973 31.3041 55.5053C31.3041 55.6154 31.3156 55.7155 31.3399 55.8059C31.3638 55.8961 31.3976 55.9743 31.4413 56.0405C31.4856 56.1065 31.5392 56.1574 31.603 56.194C31.6666 56.2295 31.7382 56.2483 31.8174 56.2483C31.899 56.2483 31.9709 56.2293 32.0339 56.1905C32.0965 56.1521 32.149 56.0992 32.1919 56.0319C32.2349 55.9648 32.2679 55.885 32.2909 55.7925C32.3137 55.6999 32.3251 55.6 32.3251 55.492C32.3251 55.3927 32.3144 55.2983 32.2924 55.2081C32.2701 55.1177 32.2377 55.0383 32.1933 54.9703C32.1497 54.9019 32.096 54.8479 32.0325 54.8084C31.9687 54.7688 31.8963 54.7487 31.8145 54.7487ZM34.9071 56.5094C34.8698 56.5227 34.8254 56.5362 34.774 56.5508C34.7231 56.5648 34.6663 56.5786 34.6047 56.5918C34.5431 56.6051 34.4783 56.6154 34.409 56.6233C34.3402 56.6311 34.2713 56.6347 34.2023 56.6347C34.0079 56.6347 33.8406 56.6093 33.7009 56.5587C33.5608 56.5083 33.4419 56.4334 33.3434 56.3341C33.2453 56.2373 33.1707 56.1194 33.1195 55.9808C33.0687 55.8419 33.044 55.6904 33.0461 55.525C33.0461 55.3401 33.077 55.1754 33.1383 55.031C33.2003 54.887 33.2841 54.7654 33.3903 54.6663C33.4974 54.5669 33.6242 54.4919 33.7713 54.4397C33.9185 54.3885 34.079 54.3622 34.2523 54.3622C34.3902 54.3622 34.5093 54.374 34.6099 54.3971C34.71 54.4203 34.786 54.4451 34.8381 54.4712L34.7381 54.8741C34.6796 54.8479 34.6121 54.8253 34.5361 54.8068C34.46 54.7878 34.363 54.7786 34.2459 54.7786C34.146 54.7786 34.0537 54.7935 33.9685 54.8233C33.884 54.8528 33.8103 54.8978 33.7476 54.9568C33.6855 55.0161 33.6361 55.0914 33.6007 55.1815C33.565 55.272 33.5474 55.3777 33.5474 55.4985C33.5474 55.6132 33.5637 55.7155 33.596 55.8059C33.6284 55.8961 33.6737 55.9727 33.7322 56.0354C33.7906 56.0982 33.8608 56.146 33.9422 56.1791C34.0234 56.2122 34.1136 56.2286 34.2117 56.2286C34.3262 56.2286 34.405 56.2176 34.4466 56.1953V55.73H34.121V55.337H34.9071V56.5094ZM35.769 56.6116V55.6999L35.1015 54.3854H35.6472L35.863 54.9204C35.8965 55.0022 35.9253 55.0755 35.9493 55.1401C35.9732 55.2051 35.9988 55.2738 36.0259 55.3468H36.0319C36.0549 55.276 36.0795 55.2074 36.1058 55.1401C36.1316 55.0731 36.1604 54.9999 36.1922 54.9204L36.4052 54.3854H36.9406L36.2449 55.6836V56.6116H35.769Z" fill="#A79ECD" stroke="#A79ECD" stroke-width="0.25" stroke-miterlimit="22.9256" stroke-linecap="round" stroke-linejoin="round"/>
</svg>
