<svg width="91" height="32" viewBox="0 0 91 32" fill="none" xmlns="http://www.w3.org/2000/svg">
<path d="M42.5696 4.07665L45.2572 6.85676C45.6984 7.32106 46.0737 7.63636 46.3849 7.80258C46.6962 7.96883 47.0074 8.06243 47.3187 8.0854V8.29175H43.8511V8.0854C44.0599 8.0854 44.2082 8.04909 44.2997 7.97644C44.3912 7.90383 44.437 7.82168 44.437 7.73194C44.437 7.64212 44.4187 7.56182 44.3857 7.49118C44.3509 7.42046 44.2393 7.28672 44.0507 7.09372L41.5407 4.49704V6.9504C41.5407 7.33448 41.5645 7.5886 41.6121 7.7109C41.6469 7.80451 41.7238 7.88477 41.8391 7.95166C41.9947 8.0414 42.1595 8.0854 42.3334 8.0854H42.5842V8.29175H39.4646V8.0854H39.7227C40.0248 8.0854 40.2426 7.99366 40.38 7.81216C40.466 7.69176 40.5081 7.40519 40.5081 6.9504V2.0322C40.5081 1.64812 40.4844 1.39209 40.4385 1.26601C40.402 1.17619 40.3287 1.09782 40.217 1.03094C40.0596 0.941192 39.8948 0.897199 39.7227 0.897199H39.4646V0.69085H42.5842V0.897199H42.3334C42.1632 0.897199 41.9984 0.939263 41.8391 1.02525C41.7274 1.08445 41.6487 1.17426 41.6066 1.29466C41.5627 1.41312 41.5407 1.6596 41.5407 2.0322V4.36326C41.6121 4.29069 41.8574 4.05373 42.2749 3.65058C43.3367 2.63408 43.9793 1.95573 44.2008 1.61564C44.2979 1.4647 44.3455 1.33478 44.3455 1.22205C44.3455 1.13606 44.307 1.06152 44.232 0.994632C44.1569 0.929676 44.0305 0.897199 43.8511 0.897199H43.6864V0.69085H46.3648V0.897199C46.2073 0.901025 46.0646 0.923987 45.9364 0.965981C45.8064 1.00615 45.649 1.08638 45.4641 1.20484C45.2773 1.3252 45.0484 1.51628 44.7775 1.77993C44.6988 1.85447 44.3345 2.23662 43.6845 2.92641L42.5696 4.07665ZM50.3412 7.54655C49.8378 7.95355 49.5211 8.19049 49.3911 8.25351C49.1988 8.34715 48.9938 8.39494 48.7759 8.39494C48.4354 8.39494 48.1553 8.27264 47.9356 8.02996C47.7159 7.78731 47.606 7.46822 47.606 7.07269C47.606 6.82242 47.6592 6.60455 47.7672 6.42306C47.9137 6.16889 48.1681 5.93007 48.5306 5.70458C48.8949 5.48103 49.4973 5.20787 50.3412 4.88681V4.68622C50.3412 4.17602 50.2644 3.82638 50.1087 3.63531C49.9531 3.44613 49.7279 3.35058 49.4314 3.35058C49.208 3.35058 49.0286 3.41365 48.8968 3.54166C48.7613 3.66779 48.6936 3.81297 48.6936 3.97732L48.7046 4.30214C48.7046 4.47412 48.6624 4.60785 48.5782 4.70149C48.494 4.7951 48.3823 4.84099 48.2468 4.84099C48.1132 4.84099 48.0034 4.79317 47.9191 4.69573C47.8349 4.5983 47.7928 4.46456 47.7928 4.29637C47.7928 3.97539 47.9502 3.67923 48.2651 3.40982C48.58 3.14038 49.0231 3.00664 49.5925 3.00664C50.03 3.00664 50.3871 3.08308 50.6672 3.23595C50.8777 3.35059 51.0333 3.53212 51.134 3.77863C51.1981 3.93719 51.231 4.26583 51.231 4.76069V6.49946C51.231 6.98673 51.2402 7.28672 51.2585 7.3956C51.2768 7.50645 51.3061 7.57903 51.3464 7.61726C51.3885 7.65356 51.4361 7.67266 51.4892 7.67266C51.5477 7.67266 51.5972 7.65928 51.6411 7.63443C51.7162 7.58478 51.8608 7.44911 52.0768 7.22556V7.53893C51.6741 8.10257 51.2896 8.38346 50.9234 8.38346C50.7477 8.38346 50.6067 8.3204 50.5024 8.19431C50.398 8.06627 50.3449 7.85036 50.3412 7.54655ZM50.3412 7.18163V5.23076C49.7975 5.45431 49.4478 5.61291 49.2885 5.70651C49.0048 5.87086 48.8016 6.04091 48.6789 6.22054C48.5563 6.40014 48.4958 6.59504 48.4958 6.80711C48.4958 7.07648 48.5727 7.29817 48.7283 7.47583C48.8821 7.65356 49.0615 7.74145 49.2629 7.74145C49.5357 7.74145 49.8945 7.55419 50.3412 7.18163ZM56.7106 6.70967L56.6556 8.29175H52.3167V8.08922L55.5974 3.53404H53.9644C53.622 3.53404 53.3968 3.55694 53.2906 3.60469C53.1845 3.65058 53.0984 3.7404 53.0307 3.8703C52.9355 4.05755 52.8805 4.28876 52.8659 4.56582H52.6462L52.6682 3.15572H56.7984V3.35631L53.5012 7.91342H55.2935C55.6652 7.91342 55.916 7.88094 56.0497 7.81405C56.1815 7.74906 56.2876 7.63443 56.3701 7.46822C56.4268 7.34975 56.4744 7.09565 56.5128 6.70967H56.7106ZM60.092 7.54655C59.5885 7.95355 59.2718 8.19049 59.1418 8.25351C58.9496 8.34715 58.7445 8.39494 58.5267 8.39494C58.1862 8.39494 57.9061 8.27264 57.6863 8.02996C57.4667 7.78731 57.3568 7.46822 57.3568 7.07269C57.3568 6.82242 57.4099 6.60455 57.5179 6.42306C57.6644 6.16889 57.9188 5.93007 58.2813 5.70458C58.6457 5.48103 59.248 5.20787 60.092 4.88681V4.68622C60.092 4.17602 60.0151 3.82638 59.8595 3.63531C59.7039 3.44613 59.4787 3.35058 59.1821 3.35058C58.9587 3.35058 58.7793 3.41365 58.6475 3.54166C58.512 3.66779 58.4443 3.81297 58.4443 3.97732L58.4553 4.30214C58.4553 4.47412 58.4132 4.60785 58.3289 4.70149C58.2448 4.7951 58.133 4.84099 57.9976 4.84099C57.8639 4.84099 57.7541 4.79317 57.6699 4.69573C57.5857 4.5983 57.5436 4.46456 57.5436 4.29637C57.5436 3.97539 57.701 3.67923 58.0159 3.40982C58.3308 3.14038 58.7738 3.00664 59.3432 3.00664C59.7808 3.00664 60.1378 3.08308 60.4179 3.23595C60.6284 3.35059 60.784 3.53212 60.8847 3.77863C60.9488 3.93719 60.9817 4.26583 60.9817 4.76069V6.49946C60.9817 6.98673 60.9909 7.28672 61.0092 7.3956C61.0275 7.50645 61.0568 7.57903 61.0971 7.61726C61.1392 7.65356 61.1868 7.67266 61.2399 7.67266C61.2985 7.67266 61.3479 7.65928 61.3919 7.63443C61.4669 7.58478 61.6116 7.44911 61.8276 7.22556V7.53893C61.4248 8.10257 61.0403 8.38346 60.6742 8.38346C60.4984 8.38346 60.3574 8.3204 60.2531 8.19431C60.1488 8.06627 60.0956 7.85036 60.092 7.54655ZM60.092 7.18163V5.23076C59.5483 5.45431 59.1986 5.61291 59.0393 5.70651C58.7555 5.87086 58.5523 6.04091 58.4296 6.22054C58.307 6.40014 58.2465 6.59504 58.2465 6.80711C58.2465 7.07648 58.3235 7.29817 58.4791 7.47583C58.6329 7.65356 58.8123 7.74145 59.0137 7.74145C59.2865 7.74145 59.6453 7.55419 60.092 7.18163ZM63.6492 0.323975V5.43141L64.8941 4.241C65.1596 3.98684 65.3134 3.82638 65.3555 3.75946C65.3848 3.71364 65.3994 3.66968 65.3994 3.62386C65.3994 3.54932 65.3683 3.48622 65.3097 3.43085C65.2512 3.37734 65.1541 3.34679 65.0168 3.33915V3.15572H67.1533V3.33915C66.8622 3.34679 66.6187 3.39455 66.4247 3.48054C66.2306 3.56842 66.0183 3.72319 65.7857 3.94484L64.5207 5.15436L65.7766 6.82242C66.1281 7.27907 66.3624 7.5714 66.4796 7.69939C66.6535 7.8695 66.8037 7.98031 66.9336 8.02996C67.0252 8.06626 67.1826 8.0854 67.406 8.0854V8.29175H65.0168V8.0854C65.1541 8.08157 65.2457 8.06058 65.2933 8.02234C65.3427 7.98221 65.3665 7.9287 65.3665 7.85802C65.3665 7.77203 65.2951 7.63443 65.1523 7.44528L63.6492 5.43711V7.13381C63.6492 7.46631 63.6712 7.68411 63.7151 7.7892C63.7609 7.89239 63.8231 7.96693 63.9055 8.01279C63.9879 8.05675 64.1655 8.08157 64.4401 8.0854V8.29175H61.9466V8.0854C62.1956 8.0854 62.3841 8.05292 62.5087 7.98986C62.5837 7.94973 62.6405 7.88663 62.6789 7.80258C62.732 7.68032 62.7594 7.46822 62.7594 7.16822V2.49075C62.7594 1.90415 62.7466 1.54493 62.7228 1.41312C62.6972 1.28128 62.6569 1.19147 62.5983 1.14178C62.5416 1.0902 62.4665 1.06535 62.375 1.06535C62.2999 1.06535 62.1864 1.09782 62.0381 1.16092L61.9466 0.954535L63.4021 0.323975H63.6492ZM69.1306 0.323975V4.07476C69.5279 3.62003 69.8427 3.32766 70.0753 3.19965C70.3077 3.07159 70.5421 3.00664 70.7746 3.00664C71.0529 3.00664 71.2928 3.08687 71.4941 3.2474C71.6937 3.40793 71.842 3.66013 71.939 4.00405C72.0068 4.24479 72.0415 4.68239 72.0415 5.31675V7.13381C72.0415 7.45677 72.0672 7.67649 72.1166 7.79689C72.1514 7.88477 72.2118 7.95548 72.2978 8.00706C72.382 8.05861 72.5395 8.0854 72.7665 8.0854V8.29175H70.3609V8.0854H70.4725C70.7014 8.0854 70.8588 8.04909 70.9486 7.97644C71.0382 7.90383 71.1005 7.79688 71.1353 7.65739C71.1462 7.59812 71.1518 7.42239 71.1518 7.13381V5.31675C71.1518 4.755 71.1243 4.3862 71.0675 4.21039C71.0126 4.03466 70.9247 3.90278 70.8021 3.8149C70.6812 3.72698 70.5329 3.68305 70.3609 3.68305C70.1851 3.68305 70.0039 3.73081 69.8134 3.82824C69.6231 3.92571 69.396 4.1225 69.1306 4.41677V7.13381C69.1306 7.48159 69.1489 7.69939 69.1873 7.78538C69.2239 7.8695 69.2935 7.94208 69.396 7.99941C69.4967 8.05674 69.6725 8.0854 69.9215 8.0854V8.29175H67.4939V8.0854C67.7117 8.0854 67.882 8.05099 68.0065 7.98031C68.0779 7.94208 68.1346 7.87135 68.1768 7.76824C68.2188 7.66505 68.2408 7.45294 68.2408 7.13381V2.49075C68.2408 1.90798 68.228 1.55069 68.2005 1.41695C68.1731 1.28321 68.1328 1.19146 68.0779 1.14371C68.023 1.09596 67.9479 1.07111 67.8564 1.07111C67.7813 1.07111 67.6586 1.10165 67.492 1.16092L67.417 0.954535L68.8834 0.323975H69.1306ZM76.3475 3.00664V4.74924H76.1718C76.0363 4.20277 75.8623 3.83207 75.65 3.63531C75.4395 3.43847 75.1685 3.33915 74.8408 3.33915C74.5918 3.33915 74.3904 3.40793 74.2366 3.5455C74.0847 3.68305 74.0078 3.83589 74.0078 4.00405C74.0078 4.21233 74.0645 4.39195 74.1762 4.54096C74.286 4.69384 74.5113 4.85626 74.85 5.02823L75.6335 5.42373C76.3585 5.7944 76.721 6.28167 76.721 6.88544C76.721 7.35168 76.5525 7.72807 76.2139 8.01279C75.877 8.2975 75.4981 8.44076 75.0806 8.44076C74.7804 8.44076 74.4362 8.38539 74.0517 8.27647C73.9327 8.24017 73.8357 8.22296 73.7606 8.22296C73.6801 8.22296 73.6142 8.26885 73.5684 8.36052H73.3926V6.52625H73.5684C73.6691 7.04976 73.8595 7.44528 74.1433 7.7109C74.4252 7.97644 74.7419 8.10832 75.0934 8.10832C75.3387 8.10832 75.5402 8.03378 75.6958 7.88284C75.8514 7.73193 75.9301 7.54848 75.9301 7.3364C75.9301 7.08038 75.8422 6.86444 75.6683 6.68864C75.4944 6.51284 75.1484 6.29311 74.6284 6.02563C74.1103 5.75809 73.7716 5.51733 73.6105 5.29954C73.4512 5.08744 73.3707 4.81802 73.3707 4.49321C73.3707 4.07097 73.5098 3.71746 73.7862 3.43278C74.0627 3.14804 74.4197 3.00664 74.8591 3.00664C75.0532 3.00664 75.2857 3.0506 75.5621 3.13851C75.7434 3.19582 75.8642 3.2245 75.9246 3.2245C75.9832 3.2245 76.0271 3.21109 76.0601 3.18437C76.0913 3.15758 76.1297 3.09839 76.1718 3.00664H76.3475ZM78.8868 1.47046V3.15572H80.0347V3.53404L78.8868 3.5455V6.8721C78.8868 7.20452 78.9326 7.43001 79.0242 7.54469C79.1139 7.66122 79.231 7.71852 79.3738 7.71852C79.4928 7.71852 79.6063 7.68032 79.718 7.60195C79.8279 7.52555 79.9139 7.41088 79.9743 7.25994H80.183C80.0585 7.62875 79.8809 7.90581 79.6521 8.09305C79.4214 8.27837 79.1852 8.37197 78.9418 8.37197C78.777 8.37197 78.6158 8.32422 78.4584 8.22868C78.301 8.13314 78.1857 7.99559 78.1106 7.81785C78.0355 7.64018 77.9971 7.36695 77.9971 6.99625V3.53404H77.2171V3.35631C77.4149 3.27415 77.6163 3.13658 77.8231 2.94361C78.03 2.74871 78.2131 2.51751 78.376 2.24806C78.4584 2.1067 78.5738 1.84685 78.7221 1.47046H78.8868ZM83.2789 7.54655C82.7754 7.95355 82.4587 8.19049 82.3287 8.25351C82.1365 8.34715 81.9314 8.39494 81.7136 8.39494C81.373 8.39494 81.0929 8.27264 80.8733 8.02996C80.6535 7.78731 80.5437 7.46822 80.5437 7.07269C80.5437 6.82242 80.5968 6.60455 80.7048 6.42306C80.8513 6.16889 81.1057 5.93007 81.4682 5.70458C81.8326 5.48103 82.4349 5.20787 83.2789 4.88681V4.68622C83.2789 4.17602 83.202 3.82638 83.0464 3.63531C82.8908 3.44613 82.6656 3.35058 82.369 3.35058C82.1456 3.35058 81.9662 3.41365 81.8344 3.54166C81.6989 3.66779 81.6312 3.81297 81.6312 3.97732L81.6422 4.30214C81.6422 4.47412 81.6001 4.60785 81.5158 4.70149C81.4316 4.7951 81.3199 4.84099 81.1845 4.84099C81.0508 4.84099 80.941 4.79317 80.8567 4.69573C80.7726 4.5983 80.7304 4.46456 80.7304 4.29637C80.7304 3.97539 80.8879 3.67923 81.2027 3.40982C81.5177 3.14038 81.9607 3.00664 82.5301 3.00664C82.9676 3.00664 83.3247 3.08308 83.6048 3.23595C83.8153 3.35059 83.971 3.53212 84.0716 3.77863C84.1357 3.93719 84.1686 4.26583 84.1686 4.76069V6.49946C84.1686 6.98673 84.1778 7.28672 84.1961 7.3956C84.2144 7.50645 84.2437 7.57903 84.284 7.61726C84.3261 7.65356 84.3737 7.67266 84.4268 7.67266C84.4854 7.67266 84.5348 7.65928 84.5788 7.63443C84.6538 7.58478 84.7984 7.44911 85.0145 7.22556V7.53893C84.6117 8.10257 84.2272 8.38346 83.8611 8.38346C83.6853 8.38346 83.5443 8.3204 83.44 8.19431C83.3357 8.06627 83.2825 7.85036 83.2789 7.54655ZM83.2789 7.18163V5.23076C82.7352 5.45431 82.3855 5.61291 82.2262 5.70651C81.9424 5.87086 81.7392 6.04091 81.6165 6.22054C81.4939 6.40014 81.4334 6.59504 81.4334 6.80711C81.4334 7.07648 81.5104 7.29817 81.666 7.47583C81.8197 7.65356 81.9992 7.74145 82.2006 7.74145C82.4733 7.74145 82.8322 7.55419 83.2789 7.18163ZM86.8141 4.08241C87.389 3.36586 87.9364 3.00664 88.4563 3.00664C88.7236 3.00664 88.9543 3.07736 89.1465 3.21685C89.3406 3.35632 89.4925 3.58749 89.6079 3.90854C89.6866 4.13399 89.7251 4.47794 89.7251 4.94031V7.13381C89.7251 7.45677 89.7507 7.67459 89.8001 7.79113C89.8386 7.88284 89.9027 7.95548 89.9887 8.00706C90.0766 8.05861 90.2377 8.0854 90.472 8.0854V8.29175H88.0444V8.0854H88.1469C88.374 8.0854 88.5332 8.04909 88.6248 7.97644C88.7145 7.90383 88.7786 7.79688 88.8133 7.65739C88.828 7.60195 88.8353 7.42622 88.8353 7.13381V5.02248C88.8353 4.55434 88.7767 4.21233 88.6614 4.00021C88.5461 3.78814 88.352 3.68305 88.0774 3.68305C87.6544 3.68305 87.2334 3.92571 86.8141 4.41298V7.13381C86.8141 7.47966 86.8343 7.69176 86.8727 7.77393C86.924 7.88094 86.9936 7.95932 87.0814 8.01085C87.1693 8.06057 87.3469 8.0854 87.616 8.0854V8.29175H85.1774V8.0854H85.2854C85.5362 8.0854 85.7047 8.02044 85.7926 7.88857C85.8804 7.75672 85.9244 7.50452 85.9244 7.13381V5.23076C85.9244 4.61551 85.9116 4.241 85.8841 4.10724C85.8566 3.97157 85.8164 3.87989 85.7614 3.83207C85.7065 3.78431 85.6315 3.75946 85.5399 3.75946C85.4392 3.75946 85.3202 3.78814 85.1811 3.84359L85.1005 3.6372L86.5835 3.00664H86.8141V4.08241ZM45.9016 10.7777L46.0664 13.3572H45.9016C45.6801 12.5852 45.3652 12.0273 44.9551 11.6891C44.545 11.349 44.0544 11.1789 43.4795 11.1789C42.9998 11.1789 42.5641 11.3069 42.176 11.563C41.7878 11.819 41.4821 12.226 41.2587 12.7879C41.0372 13.3477 40.9255 14.0451 40.9255 14.8781C40.9255 15.566 41.0299 16.1622 41.2405 16.6666C41.451 17.171 41.7677 17.557 42.1888 17.8264C42.6117 18.0958 43.0932 18.2296 43.6333 18.2296C44.1038 18.2296 44.5194 18.1245 44.8782 17.9143C45.2389 17.7042 45.6343 17.2857 46.0646 16.6589L46.2312 16.7735C45.8669 17.4481 45.4421 17.941 44.9569 18.2545C44.4718 18.5658 43.8951 18.7225 43.2287 18.7225C42.0258 18.7225 41.094 18.2563 40.4349 17.3219C39.9424 16.6265 39.6953 15.8087 39.6953 14.8686C39.6953 14.1101 39.8582 13.4126 40.1823 12.7783C40.5063 12.1419 40.953 11.6509 41.5206 11.3012C42.0899 10.9516 42.7106 10.7777 43.3843 10.7777C43.9079 10.7777 44.4242 10.9114 44.935 11.1809C45.0833 11.263 45.1913 11.3051 45.2553 11.3051C45.3505 11.3051 45.4348 11.2688 45.5062 11.198C45.5995 11.0968 45.6654 10.9574 45.7039 10.7777H45.9016ZM49.7353 17.8054C49.2318 18.2124 48.9151 18.4493 48.7851 18.5123C48.5929 18.606 48.3878 18.6538 48.17 18.6538C47.8295 18.6538 47.5494 18.5315 47.3296 18.2888C47.1099 18.0462 47.0001 17.727 47.0001 17.3314C47.0001 17.0812 47.0532 16.8634 47.1612 16.6819C47.3077 16.4278 47.5621 16.1889 47.9246 15.9634C48.289 15.7399 48.8913 15.4666 49.7353 15.1457V14.945C49.7353 14.4348 49.6584 14.0852 49.5028 13.8941C49.3472 13.7049 49.122 13.6094 48.8254 13.6094C48.602 13.6094 48.4226 13.6725 48.2908 13.8006C48.1553 13.9266 48.0876 14.0718 48.0876 14.2361L48.0986 14.561C48.0986 14.733 48.0565 14.8667 47.9722 14.9603C47.888 15.0539 47.7763 15.0998 47.6409 15.0998C47.5072 15.0998 47.3974 15.052 47.3132 14.9546C47.229 14.8571 47.1869 14.7234 47.1869 14.5552C47.1869 14.2342 47.3443 13.9381 47.6592 13.6686C47.9741 13.3992 48.4171 13.2654 48.9865 13.2654C49.4241 13.2654 49.7811 13.3419 50.0612 13.4948C50.2717 13.6094 50.4273 13.7909 50.528 14.0374C50.5921 14.196 50.625 14.5246 50.625 15.0195V16.7582C50.625 17.2455 50.6342 17.5455 50.6525 17.6544C50.6708 17.7652 50.7001 17.8378 50.7404 17.8761C50.7825 17.9124 50.8301 17.9314 50.8832 17.9314C50.9418 17.9314 50.9912 17.9181 51.0351 17.8932C51.1102 17.8436 51.2549 17.7079 51.4709 17.4843V17.7978C51.0681 18.3614 50.6837 18.6423 50.3175 18.6423C50.1417 18.6423 50.0007 18.5792 49.8964 18.4531C49.7921 18.3251 49.7389 18.1092 49.7353 17.8054ZM49.7353 17.4404V15.4896C49.1916 15.7131 48.8418 15.8717 48.6826 15.9654C48.3988 16.1297 48.1956 16.2998 48.0729 16.4793C47.9503 16.6589 47.8898 16.8539 47.8898 17.066C47.8898 17.3354 47.9668 17.557 48.1224 17.7346C48.2762 17.9124 48.4556 18.0002 48.657 18.0002C48.9298 18.0002 49.2886 17.813 49.7353 17.4404ZM53.2706 14.3412C53.8454 13.6247 54.3928 13.2654 54.9128 13.2654C55.18 13.2654 55.4107 13.3362 55.603 13.4757C55.797 13.6151 55.949 13.8463 56.0643 14.1674C56.143 14.3928 56.1815 14.7368 56.1815 15.1992V17.3927C56.1815 17.7155 56.2071 17.9334 56.2565 18.0499C56.295 18.1417 56.3591 18.2143 56.4451 18.2659C56.533 18.3175 56.6941 18.3442 56.9285 18.3442V18.5505H54.5008V18.3442H54.6033C54.8304 18.3442 54.9896 18.308 55.0812 18.2352C55.1709 18.1627 55.2349 18.0557 55.2697 17.9162C55.2844 17.8608 55.2917 17.6851 55.2917 17.3927V15.2813C55.2917 14.8132 55.2332 14.4712 55.1178 14.259C55.0025 14.0469 54.8084 13.9419 54.5338 13.9419C54.1109 13.9419 53.6898 14.1845 53.2706 14.6718V17.3927C53.2706 17.7385 53.2907 17.9505 53.3291 18.0328C53.3804 18.1398 53.45 18.2181 53.5378 18.2697C53.6257 18.3193 53.8033 18.3442 54.0724 18.3442V18.5505H51.6338V18.3442H51.7419C51.9926 18.3442 52.1611 18.2793 52.249 18.1474C52.3368 18.0155 52.3808 17.7634 52.3808 17.3927V15.4896C52.3808 14.8743 52.3679 14.4998 52.3405 14.366C52.313 14.2304 52.2728 14.1387 52.2179 14.0908C52.1629 14.0431 52.0878 14.0183 51.9963 14.0183C51.8956 14.0183 51.7766 14.0469 51.6375 14.1024L51.5569 13.896L53.0399 13.2654H53.2706V14.3412ZM61.5091 16.5998C61.3773 17.278 61.1172 17.7958 60.731 18.1569C60.3447 18.5181 59.9181 18.6996 59.4494 18.6996C58.8911 18.6996 58.4041 18.455 57.9903 17.9659C57.5747 17.4787 57.3678 16.8175 57.3678 15.9844C57.3678 15.1801 57.5967 14.5246 58.0562 14.0203C58.5157 13.5177 59.0668 13.2654 59.7094 13.2654C60.1927 13.2654 60.5882 13.3992 60.8994 13.6668C61.2106 13.9323 61.3662 14.2093 61.3662 14.4979C61.3662 14.6393 61.3223 14.7539 61.2344 14.8418C61.1466 14.9298 61.0257 14.9737 60.8683 14.9737C60.6577 14.9737 60.5003 14.903 60.3959 14.7597C60.3319 14.6813 60.2898 14.5304 60.2696 14.3087C60.2495 14.0871 60.1781 13.9171 60.0536 13.8006C59.9273 13.6877 59.7552 13.6323 59.5337 13.6323C59.1748 13.6323 58.8874 13.7699 58.6695 14.0469C58.3803 14.4139 58.2356 14.8972 58.2356 15.501C58.2356 16.1143 58.3803 16.6551 58.6677 17.1252C58.957 17.5933 59.3451 17.8283 59.8357 17.8283C60.1873 17.8283 60.5021 17.706 60.7804 17.4595C60.9781 17.2895 61.1685 16.9761 61.3553 16.5213L61.5091 16.5998ZM63.0231 15.352C63.0194 16.1105 63.197 16.7048 63.554 17.1366C63.9111 17.5666 64.3321 17.7825 64.8155 17.7825C65.1359 17.7825 65.416 17.6907 65.6539 17.5073C65.892 17.3258 66.0915 17.0067 66.2526 16.5557L66.4174 16.6684C66.3424 17.1844 66.1244 17.6525 65.7638 18.071C65.4031 18.4895 64.9509 18.6996 64.409 18.6996C63.8195 18.6996 63.3142 18.4608 62.8949 17.9812C62.4757 17.5016 62.2652 16.8577 62.2652 16.0495C62.2652 15.1743 62.4812 14.4902 62.9114 14.0011C63.3417 13.5101 63.8817 13.2654 64.5317 13.2654C65.0809 13.2654 65.5331 13.4547 65.8864 13.833C66.2398 14.2113 66.4174 14.7176 66.4174 15.352H63.0231ZM63.0231 15.031H65.297C65.2786 14.7023 65.242 14.4712 65.1853 14.3374C65.0956 14.1292 64.9619 13.9648 64.7843 13.8463C64.6086 13.726 64.4237 13.6668 64.2296 13.6668C63.933 13.6668 63.6676 13.7871 63.4332 14.0278C63.1989 14.2686 63.0634 14.603 63.0231 15.031ZM68.5246 13.2654V14.4234C68.9329 13.6514 69.3521 13.2654 69.7824 13.2654C69.9764 13.2654 70.1375 13.3286 70.2657 13.4547C70.3939 13.5788 70.4579 13.7241 70.4579 13.8884C70.4579 14.0355 70.4121 14.1597 70.3206 14.261C70.2273 14.3622 70.1174 14.4119 69.9911 14.4119C69.8666 14.4119 69.7275 14.347 69.5736 14.217C69.4181 14.0871 69.3027 14.0221 69.2295 14.0221C69.1654 14.0221 69.0958 14.0604 69.0208 14.1348C68.8615 14.2877 68.6948 14.5419 68.5246 14.8934V17.3468C68.5246 17.6315 68.5594 17.8493 68.6272 17.9945C68.6729 18.0958 68.7553 18.1799 68.8725 18.2449C68.9914 18.3117 69.1599 18.3442 69.3814 18.3442V18.5505H66.8659V18.3442C67.1149 18.3442 67.2998 18.3041 67.4207 18.2219C67.5103 18.1608 67.5726 18.0672 67.6074 17.9353C67.6257 17.8722 67.6349 17.6907 67.6349 17.3927V15.4093C67.6349 14.8132 67.6239 14.4597 67.6001 14.3451C67.5762 14.2324 67.5342 14.1482 67.4719 14.0966C67.4097 14.0451 67.3309 14.0183 67.2394 14.0183C67.1277 14.0183 67.0032 14.0469 66.8641 14.1024L66.811 13.896L68.2995 13.2654H68.5246ZM44.3308 21.0365V23.6618H44.1331C44.069 23.1574 43.9537 22.7562 43.7871 22.4581C43.6205 22.16 43.3825 21.9231 43.0731 21.7473C42.7655 21.5715 42.4469 21.4836 42.1174 21.4836C41.7439 21.4836 41.4363 21.6021 41.1929 21.8391C40.9493 22.0759 40.8267 22.3472 40.8267 22.6492C40.8267 22.8804 40.9036 23.0924 41.0574 23.2836C41.2807 23.5626 41.808 23.937 42.6428 24.4033C43.3239 24.7854 43.7889 25.0777 44.0379 25.2803C44.2869 25.4847 44.4791 25.7236 44.6127 26.0006C44.7464 26.2777 44.8142 26.5662 44.8142 26.8699C44.8142 27.4451 44.5999 27.94 44.1734 28.3565C43.745 28.7731 43.1939 28.9813 42.522 28.9813C42.3096 28.9813 42.1119 28.9642 41.9252 28.9298C41.8135 28.9107 41.5846 28.8419 41.235 28.7234C40.8871 28.6049 40.6656 28.5457 40.5722 28.5457C40.4825 28.5457 40.4111 28.5744 40.3598 28.6298C40.3086 28.6871 40.2701 28.8036 40.2445 28.9813H40.0468V26.3789H40.2445C40.3379 26.9234 40.4624 27.3324 40.6198 27.6018C40.7773 27.8731 41.0189 28.0986 41.3429 28.2763C41.667 28.4559 42.0222 28.5457 42.4085 28.5457C42.8552 28.5457 43.2104 28.4215 43.4685 28.175C43.7285 27.9266 43.8585 27.6343 43.8585 27.298C43.8585 27.1107 43.809 26.9216 43.712 26.7306C43.6131 26.5394 43.4612 26.3618 43.2543 26.1956C43.1152 26.0827 42.7325 25.8459 42.1082 25.4828C41.4839 25.1217 41.0391 24.8312 40.7754 24.6153C40.5118 24.3994 40.3104 24.1586 40.1749 23.8988C40.0376 23.6369 39.9699 23.3485 39.9699 23.0351C39.9699 22.4906 40.1713 22.0206 40.5722 21.6269C40.9731 21.2333 41.4858 21.0365 42.1046 21.0365C42.4927 21.0365 42.9028 21.1359 43.3367 21.3327C43.5381 21.4263 43.6791 21.4721 43.7614 21.4721C43.8548 21.4721 43.9317 21.4435 43.9903 21.3862C44.0489 21.327 44.0965 21.2123 44.1331 21.0365H44.3308ZM48.1608 23.5242C48.906 23.5242 49.5028 23.8186 49.9531 24.409C50.3358 24.9115 50.528 25.4904 50.528 26.1439C50.528 26.6025 50.4218 27.0668 50.2113 27.5368C50.0008 28.0069 49.7097 28.3623 49.3399 28.6012C48.9682 28.8399 48.5563 28.9584 48.1022 28.9584C47.3608 28.9584 46.7713 28.6508 46.3356 28.0356C45.9675 27.5159 45.7826 26.9349 45.7826 26.2891C45.7826 25.8191 45.8943 25.351 46.1177 24.8867C46.341 24.4224 46.6358 24.0785 47.0019 23.8568C47.3662 23.6351 47.7525 23.5242 48.1608 23.5242ZM47.9942 23.8912C47.8056 23.8912 47.6153 23.9504 47.423 24.0669C47.2326 24.1855 47.077 24.3899 46.9598 24.6841C46.8408 24.9783 46.7822 25.3566 46.7822 25.8191C46.7822 26.5642 46.9251 27.2063 47.2088 27.747C47.4926 28.2877 47.8679 28.5572 48.3329 28.5572C48.6789 28.5572 48.9645 28.4081 49.1897 28.1101C49.4149 27.812 49.5284 27.3 49.5284 26.5739C49.5284 25.6644 49.3399 24.9497 48.9645 24.428C48.7119 24.0707 48.3878 23.8912 47.9942 23.8912ZM55.4162 26.8586C55.2844 27.5368 55.0244 28.0546 54.6381 28.4158C54.2518 28.7769 53.8253 28.9584 53.3566 28.9584C52.7982 28.9584 52.3112 28.7139 51.8975 28.2247C51.4818 27.7375 51.275 27.0764 51.275 26.2433C51.275 25.4389 51.5038 24.7835 51.9634 24.2791C52.4229 23.7765 52.974 23.5242 53.6166 23.5242C54.0999 23.5242 54.4953 23.658 54.8065 23.9256C55.1178 24.1912 55.2734 24.4682 55.2734 24.7567C55.2734 24.8982 55.2295 25.0128 55.1416 25.1006C55.0537 25.1886 54.9329 25.2326 54.7754 25.2326C54.5649 25.2326 54.4074 25.1618 54.3031 25.0185C54.239 24.9401 54.1969 24.7892 54.1768 24.5675C54.1567 24.3459 54.0852 24.1759 53.9608 24.0594C53.8344 23.9465 53.6623 23.8912 53.4408 23.8912C53.082 23.8912 52.7946 24.0288 52.5767 24.3057C52.2874 24.6727 52.1428 25.156 52.1428 25.7598C52.1428 26.3731 52.2874 26.9139 52.5748 27.384C52.8641 27.8521 53.2523 28.0871 53.7429 28.0871C54.0944 28.0871 54.4093 27.9648 54.6876 27.7183C54.8853 27.5483 55.0757 27.235 55.2624 26.7801L55.4162 26.8586ZM57.3678 20.8416C57.5161 20.8416 57.6443 20.897 57.7505 21.0059C57.8548 21.1168 57.9079 21.2505 57.9079 21.4053C57.9079 21.562 57.8548 21.6976 57.7505 21.8085C57.6443 21.9212 57.5161 21.9766 57.3678 21.9766C57.2177 21.9766 57.0877 21.9212 56.9815 21.8085C56.8735 21.6976 56.8204 21.562 56.8204 21.4053C56.8204 21.2505 56.8735 21.1168 56.9779 21.0059C57.084 20.897 57.214 20.8416 57.3678 20.8416ZM57.809 23.5242V27.6515C57.809 27.9706 57.831 28.1827 57.8768 28.2877C57.9208 28.3948 57.9867 28.4731 58.0745 28.5247C58.1624 28.5763 58.3235 28.603 58.556 28.603V28.8094H56.1723V28.603C56.4103 28.603 56.5714 28.5782 56.652 28.5304C56.7344 28.4827 56.7984 28.4024 56.8479 28.2916C56.8954 28.1807 56.9193 27.9668 56.9193 27.6515V25.6682C56.9193 25.1159 56.9028 24.7586 56.8717 24.5943C56.8461 24.4758 56.8076 24.3937 56.7527 24.3478C56.6996 24.3001 56.6263 24.2771 56.5348 24.2771C56.4341 24.2771 56.3133 24.3057 56.1705 24.3612L56.0954 24.1548L57.5729 23.5242H57.809ZM59.9822 25.6109C59.9785 26.3693 60.1561 26.9636 60.5131 27.3954C60.8702 27.8254 61.2912 28.0413 61.7746 28.0413C62.0949 28.0413 62.375 27.9495 62.613 27.7661C62.851 27.5846 63.0506 27.2655 63.2117 26.8145L63.3765 26.9274C63.3014 27.4432 63.0835 27.9113 62.7229 28.3298C62.3622 28.7483 61.91 28.9584 61.3681 28.9584C60.7786 28.9584 60.2733 28.7196 59.854 28.24C59.4348 27.7604 59.2243 27.1165 59.2243 26.3083C59.2243 25.4331 59.4403 24.7491 59.8705 24.2599C60.3008 23.7689 60.8408 23.5242 61.4908 23.5242C62.04 23.5242 62.4922 23.7135 62.8455 24.0918C63.1989 24.4701 63.3765 24.9764 63.3765 25.6109H59.9822ZM59.9822 25.2899H62.2561C62.2377 24.9612 62.2011 24.73 62.1443 24.5962C62.0547 24.388 61.921 24.2236 61.7434 24.1051C61.5677 23.9848 61.3827 23.9256 61.1887 23.9256C60.8921 23.9256 60.6266 24.0459 60.3923 24.2867C60.1579 24.5274 60.0225 24.8618 59.9822 25.2899Z" fill="#433A80"/>
<path d="M65.4726 21.9871V23.6724H66.6205V24.0507L65.4726 24.0623V27.3888C65.4726 27.7213 65.5184 27.9468 65.6099 28.0614C65.6997 28.178 65.8168 28.2353 65.9596 28.2353C66.0786 28.2353 66.1921 28.1971 66.3038 28.1187C66.4136 28.0422 66.4997 27.9277 66.5601 27.7766H66.7688C66.6443 28.1454 66.4667 28.4225 66.2379 28.6098C66.0072 28.7951 65.771 28.8887 65.5275 28.8887C65.3628 28.8887 65.2017 28.841 65.0442 28.7454C64.8868 28.6498 64.7714 28.5123 64.6964 28.3346C64.6213 28.1569 64.5828 27.8836 64.5828 27.513V24.0507H63.803V23.873C64.0007 23.7909 64.2021 23.6533 64.4089 23.4603C64.6158 23.2655 64.7989 23.0342 64.9618 22.7648C65.0442 22.6234 65.1595 22.3636 65.3078 21.9871H65.4726ZM66.7963 23.6724H69.0976V23.8788H68.9841C68.8229 23.8788 68.7021 23.9151 68.6216 23.9877C68.541 24.0603 68.5008 24.152 68.5008 24.2609C68.5008 24.4061 68.5612 24.6087 68.6783 24.8666L69.8793 27.4671L70.9742 24.6201C71.0345 24.4673 71.0657 24.3144 71.0657 24.1654C71.0657 24.0985 71.0529 24.047 71.0272 24.0144C70.9998 23.9724 70.954 23.94 70.8935 23.9151C70.8332 23.8903 70.7252 23.8788 70.5714 23.8788V23.6724H72.1678V23.8788C72.036 23.8941 71.9335 23.9227 71.8621 23.9686C71.7907 24.0126 71.712 24.0966 71.6259 24.2189C71.5929 24.2705 71.5325 24.4138 71.4428 24.6488L69.4455 29.7792C69.2513 30.2759 68.9987 30.6504 68.6838 30.9045C68.3708 31.1587 68.0687 31.2848 67.7776 31.2848C67.567 31.2848 67.3931 31.2217 67.2577 31.0937C67.1204 30.9677 67.0526 30.8223 67.0526 30.6581C67.0526 30.5013 67.102 30.3753 67.2009 30.2816C67.2998 30.1862 67.4352 30.1383 67.6073 30.1383C67.7263 30.1383 67.8874 30.1766 68.0907 30.255C68.2353 30.3065 68.325 30.3332 68.3598 30.3332C68.4678 30.3332 68.5849 30.2759 68.7131 30.1613C68.8394 30.0485 68.9676 29.8269 69.0976 29.4983L69.4418 28.6002L67.6714 24.7366C67.6165 24.6201 67.5322 24.4749 67.4133 24.301C67.3236 24.1712 67.2503 24.0813 67.1936 24.0374C67.1112 23.9762 66.9794 23.9247 66.7963 23.8788V23.6724Z" fill="#433A80"/>
<path fill-rule="evenodd" clip-rule="evenodd" d="M3.69891 18.3526C3.69891 18.3525 3.81491 11.2329 3.81491 11.2329L3.81494 11.2354C3.79503 8.45813 3.93794 8.63488 5.93102 6.7117C9.03992 3.71183 12.7495 1.48129 17.0019 0.941422C23.0318 0.175893 27.847 2.48596 31.9354 7.10283C33.5603 8.93789 33.4225 9.00141 33.4564 11.428L33.4563 11.4176L33.5867 14.831L32.6538 14.851L32.6494 11.4349C32.6389 9.13743 32.9689 9.38853 31.4601 7.54928C27.8025 3.09036 22.7374 0.213287 17.0019 0.941422C12.5656 1.50464 8.54158 4.60853 5.5319 7.86826C5.26431 8.1824 4.60055 8.83076 4.46514 9.31898C4.37219 9.65415 4.63153 18.327 4.63201 18.3503L3.69891 18.3526Z" fill="#A396C1"/>
<path fill-rule="evenodd" clip-rule="evenodd" d="M18.8982 0.627991C17.3479 0.791258 12.6228 1.19314 12.724 3.13521C12.8177 4.93382 17.2231 5.15284 18.8087 5.12155C17.5698 5.13427 13.6741 4.50331 13.4273 3.28307C13.1194 1.76061 18.0615 1.69814 18.8982 1.6743C20.2391 1.7125 23.443 1.69024 24.2647 2.85176C25.3744 4.42025 19.6095 5.0901 18.8983 5.11948C20.3447 5.0797 25.5603 5.01123 25.0473 2.87282C24.6238 1.10712 20.5754 0.804601 18.8982 0.627991ZM18.8087 5.12155C18.8395 5.12092 18.8696 5.12026 18.8983 5.11948C18.8704 5.12064 18.8401 5.1212 18.8087 5.12155Z" fill="#A396C1" stroke="#A396C1" stroke-width="0.0762" stroke-miterlimit="22.9256"/>
<path d="M18.8882 7.44654C23.1456 7.44654 26.597 5.89764 26.597 3.98697C26.597 2.0763 23.1456 0.527405 18.8882 0.527405C14.6308 0.527405 11.1794 2.0763 11.1794 3.98697C11.1794 5.89764 14.6308 7.44654 18.8882 7.44654Z" fill="#E7E5F1"/>
<path fill-rule="evenodd" clip-rule="evenodd" d="M22.8629 1.15576C20.722 2.70849 20.2467 3.13245 19.6515 3.48493C20.2466 3.13245 20.9617 2.85146 23.5821 1.5844L22.8629 1.15576ZM19.6515 3.48496C19.0563 3.83748 18.3414 4.11848 15.7209 5.3855L16.4401 5.81413C18.5809 4.26142 19.0563 3.83745 19.6515 3.48496Z" fill="#433A80"/>
<path fill-rule="evenodd" clip-rule="evenodd" d="M22.1426 0.727722C20.0018 2.28045 19.5265 2.70441 18.9313 3.05686C19.5264 2.70441 20.2415 2.42342 22.8618 1.15632L22.1426 0.727722ZM18.9312 3.05692C18.3361 3.40944 17.6212 3.69044 15.0007 4.95746L15.7199 5.38609C17.8607 3.83334 18.336 3.40941 18.9312 3.05692Z" fill="#433A80"/>
<path fill-rule="evenodd" clip-rule="evenodd" d="M21.4219 0.299805C19.2811 1.85252 18.8058 2.27649 18.2106 2.62897C18.8057 2.27649 19.5208 1.99549 22.1411 0.728442L21.4219 0.299805ZM18.2105 2.62901C17.6154 2.98152 16.9005 3.26251 14.28 4.52957L14.9992 4.95818C17.14 3.40545 17.6153 2.98149 18.2105 2.62901Z" fill="#433A80"/>
<path fill-rule="evenodd" clip-rule="evenodd" d="M15.7307 0.721213C18.3443 1.99298 19.058 2.27534 19.6513 2.62894C19.058 2.27544 18.585 1.85064 16.4522 0.293945L15.7307 0.721213ZM19.6514 2.62898C20.2448 2.98252 20.7178 3.40725 22.8506 4.96398L23.5721 4.53671C20.9584 3.26495 20.2447 2.98255 19.6514 2.62898Z" fill="#433A80"/>
<path fill-rule="evenodd" clip-rule="evenodd" d="M15.0105 1.14928C17.6242 2.42107 18.3379 2.70344 18.9312 3.057C18.3379 2.70351 17.8649 2.2787 15.732 0.722046L15.0105 1.14928ZM18.9312 3.05705C19.5247 3.41061 19.9977 3.83532 22.1305 5.39204L22.852 4.96481C20.2382 3.69301 19.5246 3.41065 18.9312 3.05705Z" fill="#433A80"/>
<path fill-rule="evenodd" clip-rule="evenodd" d="M14.2898 1.57723C16.9035 2.84899 17.6172 3.13136 18.2105 3.48496C17.6172 3.13147 17.1442 2.70665 15.0113 1.14996L14.2898 1.57723ZM18.2106 3.485C18.804 3.83853 19.277 4.26327 21.4098 5.82L22.1313 5.39273C19.5176 4.12093 18.8039 3.83856 18.2106 3.485Z" fill="#433A80"/>
<path d="M9.16364 11.1778L11.3114 13.3996C11.6641 13.7706 11.964 14.0226 12.2127 14.1553C12.4614 14.2882 12.7101 14.3631 12.9589 14.3814V14.5462H10.1878V14.3814C10.3546 14.3814 10.4731 14.3523 10.5463 14.2943C10.6194 14.2363 10.656 14.1706 10.656 14.0989C10.656 14.0271 10.6414 13.963 10.6151 13.9065C10.5872 13.85 10.498 13.7431 10.3473 13.5889L8.34143 11.5138V13.4744C8.34143 13.7813 8.36044 13.9844 8.39846 14.0821C8.42624 14.1569 8.48774 14.221 8.57992 14.2744C8.70426 14.3462 8.8359 14.3814 8.97491 14.3814H9.17535V14.5462H6.68231V14.3814H6.8886C7.12998 14.3814 7.30408 14.3081 7.41385 14.163C7.48259 14.0668 7.51623 13.8378 7.51623 13.4744V9.54399C7.51623 9.23709 7.49722 9.03246 7.46065 8.93173C7.43138 8.85988 7.37288 8.79732 7.28359 8.74384C7.15777 8.67211 7.02613 8.637 6.8886 8.637H6.68231V8.47205H9.17535V8.637H8.97491C8.83886 8.637 8.70715 8.67057 8.57992 8.73931C8.49063 8.78661 8.42772 8.85841 8.39408 8.95462C8.35896 9.04927 8.34143 9.24625 8.34143 9.54399V11.4069C8.39846 11.3489 8.59449 11.1594 8.92808 10.8373C9.77667 10.025 10.2902 9.4829 10.4672 9.21114C10.5448 9.09049 10.5828 8.98663 10.5828 8.89654C10.5828 8.82786 10.5521 8.76831 10.4921 8.71484C10.4322 8.66291 10.3312 8.637 10.1878 8.637H10.0561V8.47205H12.1966V8.637C12.0708 8.64002 11.9566 8.65839 11.8542 8.69195C11.7504 8.72405 11.6246 8.78815 11.4768 8.88281C11.3275 8.97902 11.1447 9.13172 10.9281 9.34245C10.8652 9.40197 10.5741 9.7074 10.0546 10.2586L9.16364 11.1778ZM15.3744 13.9508C14.972 14.276 14.7189 14.4653 14.6151 14.5157C14.4615 14.5905 14.2976 14.6288 14.1235 14.6288C13.8514 14.6288 13.6275 14.531 13.4519 14.3371C13.2764 14.1431 13.1886 13.8882 13.1886 13.5721C13.1886 13.3721 13.231 13.198 13.3173 13.0529C13.4344 12.8499 13.6377 12.659 13.9274 12.4788C14.2186 12.3001 14.6999 12.0818 15.3744 11.8252V11.6649C15.3744 11.2573 15.3129 10.9778 15.1886 10.825C15.0642 10.6739 14.8843 10.5976 14.6472 10.5976C14.4688 10.5976 14.3254 10.648 14.22 10.7503C14.1118 10.8511 14.0576 10.9671 14.0576 11.0984L14.0664 11.358C14.0664 11.4955 14.0328 11.6023 13.9655 11.6772C13.8982 11.752 13.8089 11.7887 13.7006 11.7887C13.5938 11.7887 13.5061 11.7504 13.4388 11.6725C13.3715 11.5947 13.3378 11.4878 13.3378 11.3534C13.3378 11.0968 13.4636 10.8602 13.7153 10.6449C13.9669 10.4296 14.321 10.3228 14.776 10.3228C15.1257 10.3228 15.411 10.3838 15.6348 10.506C15.8031 10.5976 15.9274 10.7426 16.0079 10.9396C16.0591 11.0664 16.0854 11.329 16.0854 11.7245V13.114C16.0854 13.5034 16.0927 13.7431 16.1074 13.8301C16.122 13.9188 16.1454 13.9767 16.1776 14.0073C16.2112 14.0363 16.2493 14.0515 16.2917 14.0515C16.3385 14.0515 16.378 14.0409 16.4132 14.021C16.4732 13.9813 16.5887 13.8729 16.7614 13.6942V13.9447C16.4395 14.3951 16.1323 14.6196 15.8396 14.6196C15.6991 14.6196 15.5865 14.5692 15.5031 14.4684C15.4197 14.3662 15.3773 14.1935 15.3744 13.9508ZM15.3744 13.6592V12.1001C14.9399 12.2787 14.6604 12.4055 14.5331 12.4803C14.3064 12.6116 14.1439 12.7475 14.0459 12.8911C13.9479 13.0346 13.8996 13.1904 13.8996 13.3598C13.8996 13.5752 13.9611 13.7522 14.0854 13.8943C14.2083 14.0363 14.3517 14.1065 14.5127 14.1065C14.7306 14.1065 15.0174 13.9569 15.3744 13.6592ZM20.4644 13.282L20.4205 14.5462H16.953V14.3845L19.5748 10.7442H18.2698C17.9962 10.7442 17.8162 10.7626 17.7314 10.8007C17.6465 10.8373 17.5778 10.9091 17.5237 11.0129C17.4476 11.1625 17.4037 11.3473 17.3919 11.5687H17.2164L17.2339 10.4418H20.5346V10.6022L17.8996 14.244H19.332C19.629 14.244 19.8294 14.218 19.9362 14.1645C20.0416 14.1127 20.1264 14.021 20.1922 13.8882C20.2376 13.7935 20.2756 13.5905 20.3064 13.282H20.4644ZM25.9582 8.33466L26.0898 10.396H25.9582C25.7811 9.77917 25.5295 9.33328 25.2018 9.063C24.874 8.7912 24.4819 8.65529 24.0226 8.65529C23.6392 8.65529 23.291 8.75761 22.9808 8.9622C22.6706 9.16686 22.4263 9.49206 22.2479 9.94099C22.0708 10.3884 21.9816 10.9458 21.9816 11.6115C21.9816 12.1612 22.065 12.6376 22.2332 13.0408C22.4015 13.4439 22.6546 13.7522 22.9911 13.9675C23.3291 14.1829 23.7139 14.2897 24.1454 14.2897C24.5215 14.2897 24.8535 14.2057 25.1403 14.0378C25.4285 13.8698 25.7446 13.5354 26.0884 13.0346L26.2215 13.1262C25.9304 13.6653 25.5909 14.0593 25.2032 14.3096C24.8155 14.5585 24.3546 14.6837 23.8221 14.6837C22.8609 14.6837 22.1162 14.3111 21.5895 13.5644C21.196 13.0087 20.9984 12.3551 20.9984 11.6038C20.9984 10.9977 21.1286 10.4403 21.3876 9.93337C21.6465 9.42489 22.0035 9.03246 22.4571 8.75304C22.9121 8.47359 23.408 8.33466 23.9465 8.33466C24.3649 8.33466 24.7775 8.44157 25.1857 8.65684C25.3042 8.7225 25.3905 8.7561 25.4417 8.7561C25.5178 8.7561 25.5851 8.72709 25.6421 8.67057C25.7167 8.58963 25.7694 8.4782 25.8001 8.33466H25.9582ZM30.5581 8.33466V10.4327H30.4C30.3488 10.0296 30.2567 9.70895 30.1235 9.47072C29.9904 9.23252 29.8002 9.04313 29.5529 8.90269C29.3071 8.76221 29.0525 8.69195 28.7892 8.69195C28.4907 8.69195 28.2449 8.78661 28.0503 8.976C27.8558 9.16531 27.7578 9.38213 27.7578 9.62338C27.7578 9.80817 27.8192 9.97765 27.9421 10.1303C28.1206 10.3533 28.542 10.6526 29.2091 11.0251C29.7533 11.3305 30.125 11.5642 30.3239 11.7261C30.5229 11.8894 30.6765 12.0803 30.7834 12.3017C30.8901 12.523 30.9443 12.7536 30.9443 12.9965C30.9443 13.4561 30.7731 13.8515 30.4322 14.1844C30.0899 14.5173 29.6495 14.6837 29.1126 14.6837C28.9428 14.6837 28.7848 14.67 28.6356 14.6425C28.5463 14.6272 28.3635 14.5723 28.084 14.4775C27.806 14.3829 27.629 14.3356 27.5544 14.3356C27.4827 14.3356 27.4256 14.3584 27.3847 14.4027C27.3437 14.4485 27.313 14.5417 27.2925 14.6837H27.1345V12.604H27.2925C27.3671 13.0392 27.4666 13.366 27.5924 13.5813C27.7182 13.7981 27.9114 13.9783 28.1703 14.1202C28.4293 14.2638 28.7131 14.3356 29.0219 14.3356C29.3788 14.3356 29.6626 14.2363 29.8689 14.0393C30.0767 13.8408 30.1806 13.6072 30.1806 13.3384C30.1806 13.1888 30.1411 13.0377 30.0635 12.8849C29.9846 12.7323 29.8631 12.5903 29.6978 12.4574C29.5866 12.3674 29.2808 12.178 28.7819 11.8878C28.283 11.5993 27.9275 11.3672 27.7168 11.1947C27.5061 11.022 27.3452 10.8297 27.2369 10.622C27.1272 10.4128 27.073 10.1823 27.073 9.93183C27.073 9.4967 27.234 9.12104 27.5544 8.80648C27.8748 8.49195 28.2845 8.33466 28.779 8.33466C29.0891 8.33466 29.4168 8.41404 29.7636 8.57134C29.9245 8.64617 30.0372 8.68282 30.103 8.68282C30.1776 8.68282 30.2391 8.65989 30.2859 8.61407C30.3327 8.5667 30.3707 8.47514 30.4 8.33466H30.5581Z" fill="#A396C1"/>
<path fill-rule="evenodd" clip-rule="evenodd" d="M26.7683 21.8632C27.3185 21.7598 28.1257 21.6927 28.6022 21.5198C29.6438 21.1419 29.0719 20.305 28.2986 19.9848C27.8289 19.7903 26.8669 19.6517 26.4601 19.9517C26.0786 20.233 26.368 21.4794 26.7683 21.8632Z" fill="#E7E5F1"/>
<path fill-rule="evenodd" clip-rule="evenodd" d="M5.27997 18.8401C9.89019 15.1386 12.5435 16.1587 17.7086 18.7642C11.9158 17.2848 10.6082 16.2489 5.27997 18.8401Z" fill="#CBC7DF"/>
<path fill-rule="evenodd" clip-rule="evenodd" d="M26.7684 21.8631C26.368 21.4793 26.0787 20.2331 26.4602 19.9518C26.8669 19.6518 27.829 19.7903 28.2986 19.9847C29.0719 20.3051 29.6438 21.1419 28.6023 21.5198C28.1257 21.6927 27.3186 21.7598 26.7684 21.8631ZM27.9127 18.993C28.1972 18.6935 28.7501 18.3018 29.0939 18.0125C29.4852 17.683 29.904 17.3531 30.2695 16.9666C30.4881 16.7356 31.8068 15.3773 32.0455 15.2675C32.2032 15.195 32.4959 15.0906 32.6163 15.1485C31.5506 16.4196 31.314 16.2778 30.3949 17.0343C29.5425 17.7356 28.8353 18.502 28.1475 19.0752L27.9127 18.993ZM28.6255 19.2557C29.0827 18.7848 30.6084 17.3823 31.108 17.0625C32.7171 16.0324 32.8444 15.3562 33.5899 14.8538C33.2541 15.6704 30.7016 17.59 29.8895 18.255L28.7683 19.1678C28.7577 19.176 28.6991 19.2174 28.6879 19.2242C28.6367 19.2556 28.6647 19.2424 28.6255 19.2557ZM29.6115 20.0586C29.7501 19.8673 30.5555 19.2411 30.7935 19.0404C31.1795 18.7149 31.5897 18.3741 31.9726 18.0336C32.8178 17.282 33.3428 16.5626 34.3138 16.0563C34.8631 15.7698 36.3706 15.183 36.5927 16.0464C36.7479 16.6497 36.29 17.0095 35.9949 17.3163C34.6159 18.75 33.8785 19.3267 32.6495 20.9953C32.3405 21.4148 32.029 21.8529 31.7445 22.2731C31.3584 22.843 31.3265 23.0252 30.7324 23.3469C28.6456 24.4767 26.044 24.9274 23.6072 26.2077C23.4051 26.3139 21.977 27.1306 21.8305 27.1115C21.657 27.0889 21.4113 27.018 21.2341 26.981C18.7972 26.4719 16.4278 25.9777 13.9801 25.5164C13.5652 25.4382 13.1828 25.3749 12.7682 25.3069C11.5443 25.1062 10.4912 24.9077 9.20529 25.8236C8.33753 26.4417 7.34903 27.6871 6.587 28.5248C6.69991 28.6282 6.81261 28.7318 6.92511 28.8357C7.75334 27.8816 8.94773 26.3661 10.0235 25.8766C10.5722 25.6268 11.2012 25.5514 11.6718 25.6131C12.757 25.7554 13.8629 25.9533 14.9774 26.1727C17.1774 26.6058 19.3602 27.0568 21.5954 27.5294C21.7128 27.5542 21.9094 27.6292 22.0264 27.5783L23.2369 26.9208C23.7846 26.6284 24.3039 26.3527 24.8526 26.1066C26.6469 25.302 29.873 24.537 31.3703 23.4922C31.6887 23.2699 32.3474 22.1825 32.6309 21.7841C33.0975 21.1286 33.4941 20.5604 34.0435 19.9572C34.7679 19.1621 35.579 18.3856 36.335 17.6103C36.7733 17.1607 37.024 16.9182 37.0551 16.3751C37.0673 16.1633 37.0547 15.9772 36.9619 15.7586C36.8301 15.4481 36.7097 15.4163 36.4737 15.2222C36.731 14.8468 37.0975 14.0859 37.0547 13.7291C36.9834 13.1359 36.0727 13.0338 35.7727 13.0521C34.6772 13.1189 34.2142 14.0218 34.0199 14.1181C33.9302 14.1627 33.8074 14.1758 33.6759 14.2447C33.3968 14.3909 33.2429 14.5585 32.9891 14.7525C32.0157 14.4867 31.6386 14.9759 30.9524 15.6465C29.6715 16.8983 29.2602 17.3043 27.9097 18.4C27.3987 18.8146 27.4662 18.8679 27.144 18.7996C24.197 18.1752 22.0368 19.4898 19.6619 18.8448C19.3695 18.7653 19.3966 18.7628 19.1553 18.5004C17.207 16.3818 15.118 15.3955 12.3982 15.354L11.3555 15.3638C11.174 15.3753 11.0235 15.3759 10.8449 15.3936C10.7497 15.4031 10.6697 15.396 10.5797 15.4088C10.4838 15.4223 10.4495 15.4277 10.3352 15.4397C8.18416 15.664 5.92072 16.444 4.20969 18.1843C3.49241 18.914 3.12426 19.6564 2.48416 20.3853C1.83002 21.13 1.13952 21.8433 0.471863 22.5759C0.573596 22.688 0.675935 22.7996 0.778005 22.9116L1.09209 22.5664C1.09454 22.5687 1.91948 21.6744 2.00957 21.579C2.31706 21.2532 2.62983 20.9098 2.92103 20.5686C3.49379 19.8973 3.81954 19.248 4.46836 18.5648C5.59214 17.3816 6.94011 16.7333 8.19005 16.3425C8.82245 16.1447 9.49418 16.0059 10.0817 15.9369C12.7278 15.6261 15.388 15.7895 17.6735 17.6941C18.3226 18.235 18.6027 18.6169 19.114 19.1072C19.2514 19.2391 19.4249 19.2602 19.5915 19.3032C20.9106 19.6431 22.0876 19.4418 23.3528 19.2786L24.78 19.1055C24.9555 19.0814 25.082 19.1033 25.2497 19.0898C26.2232 19.0114 28.3781 19.4205 29.0308 20.0358C29.3021 20.2916 29.4623 20.7205 29.4202 20.9994C29.3725 21.3151 28.9542 21.6405 28.7288 21.6673L28.6126 21.6612C28.8569 21.505 29.1812 21.4577 29.2722 21.0893C29.4958 20.1845 27.7826 19.3662 26.6358 19.7394C26.2596 19.8618 26.2083 20.0389 26.1714 20.3833C26.0844 21.1958 26.5785 21.7521 26.6717 21.971L24.3938 22.4889C23.8236 22.628 24.1966 22.5892 23.64 22.608L22.4962 22.646C21.8547 22.71 21.31 22.7395 20.6204 22.8644C20.2862 22.9249 16.9868 23.5348 16.8769 23.9204C16.8375 24.0583 16.9706 24.2073 17.1161 24.1976C17.2001 24.192 17.3823 24.1221 17.4819 24.0886C19.4572 23.4234 21.8468 23.0566 23.9175 23.071C24.0734 23.072 24.8337 22.8495 25.0353 22.8015C26.0731 22.5539 27.0543 22.3767 28.0679 22.2288C28.688 22.1382 29.1046 22.1801 29.5782 21.6474C30.0978 21.0628 29.8343 20.5462 29.6115 20.0586ZM29.0847 19.5005C30.3637 18.3462 32.64 16.8086 33.6155 15.5919C34.2446 14.8073 34.5709 13.7508 35.5805 13.5422C35.9202 13.472 36.6908 13.5547 36.6026 13.9118C36.5335 14.1919 36.2049 14.8534 36.0109 15.126C35.934 15.1752 34.4991 14.9569 32.6477 16.7446C31.6951 17.6645 31.1322 18.1643 30.1563 18.9854C29.3185 19.6903 29.3962 19.7942 29.0847 19.5005Z" fill="#A396C1"/>
<path fill-rule="evenodd" clip-rule="evenodd" d="M3.6994 18.3451L3.70024 18.7693L4.16574 18.3018L3.6994 18.3451Z" fill="#A396C1"/>
</svg>
