<svg width="53" height="45" viewBox="0 0 53 45" fill="none" xmlns="http://www.w3.org/2000/svg">
<path d="M10.1055 19.1394C10.2034 20.3266 10.3658 21.7181 10.8866 22.7356C11.3905 23.7176 11.929 25.8909 17.0101 28.2314C22.0913 30.5715 28.1493 28.2656 29.9084 27.3154C31.6673 26.3652 33.7523 24.4324 34.2085 23.2107C34.6635 21.9892 34.3887 20.6278 33.1326 19.5809C31.8298 18.4952 30.3967 18.3255 29.3877 18.6648C28.3274 19.0207 27.6932 19.9882 26.4225 20.8357C25.4635 21.4766 22.4128 22.1411 20.3001 21.3115C18.3142 20.5306 17.0992 18.5989 17.4018 16.8672C17.7133 15.0809 18.8671 14.0509 19.844 13.373C20.8209 12.6946 23.7124 10.8782 27.4663 10.3539C31.0621 9.85225 33.7946 10.449 36.1621 11.3042C38.414 12.117 41.2111 13.5093 43.425 16.2565C42.9688 16.6974 42.4806 17.2061 42.1878 17.5113C41.3735 16.4263 39.0604 13.9159 35.4122 12.6261C33.1782 11.8371 30.8206 11.4391 27.9869 11.6772C25.1532 11.9148 22.7755 13.4413 21.733 14.0857C20.6906 14.7298 19.1273 16.4934 19.6481 17.6812C20.17 18.8683 21.3103 19.9251 23.362 19.7507C24.9573 19.6145 25.6082 18.7663 26.585 17.9523C27.563 17.1384 28.9315 16.5619 30.6249 16.6974C32.3181 16.8337 34.1106 17.4436 35.5435 19.1394C36.9766 20.8357 37.2046 22.2942 36.6829 23.8213C36.1621 25.348 34.9561 27.655 30.5603 29.9272C26.1622 32.2001 21.505 31.9961 19.3232 31.6913C17.1404 31.3854 11.7744 29.346 9.51916 25.4493C8.18416 23.1422 8.02056 21.209 7.85806 20.1579C8.84936 19.7188 9.51916 19.4112 10.1055 19.1394Z" fill="#AFCD57"/>
<path d="M18.8992 10.4553C18.8992 10.4553 16.0332 12.1518 14.8606 14.0173C13.6878 15.8835 13.3952 16.7993 13.4921 18.6307C13.5899 20.4627 14.3721 22.3283 16.5872 23.9227C18.8013 25.5177 21.7652 25.8567 23.1659 25.7553C24.5667 25.6527 26.6194 25.2118 27.8889 24.4655C29.1593 23.7199 30.4623 22.8711 30.885 22.3624C31.3089 21.8537 30.885 20.7009 29.9404 21.6499C28.9958 22.5999 28.7689 22.9389 28.2147 23.3803C27.6607 23.8213 25.1362 25.1087 21.5704 24.7373C17.662 24.3305 15.9675 22.5323 15.1864 21.2431C14.3321 19.8347 13.6534 16.7178 15.4792 14.3568C17.3682 11.9148 18.9647 11.168 20.1041 10.5579C21.2446 9.94723 24.501 8.79375 25.5758 8.59045C25.6092 9.09912 25.5758 9.50623 25.6413 9.87947C23.9802 10.4218 22.3394 11.0388 20.9185 11.8123C19.4855 12.5932 17.8578 13.7799 17.0757 15.6123C16.1734 17.7241 16.6841 19.4453 17.889 20.666C19.1151 21.9082 20.3655 22.6678 23.5575 22.498C26.823 22.3243 27.2691 21.1068 28.0513 20.4292C28.8335 19.7508 29.5177 19.1737 30.7548 19.2757C31.9998 19.3775 33.0989 20.0218 33.4584 21.4123C33.8167 22.8034 33.1324 23.5503 32.2212 24.432C31.3089 25.3144 29.2239 26.8398 26.7818 27.5523C24.3386 28.2655 20.4301 28.6723 17.2058 27.112C13.9815 25.5512 11.0823 23.177 11.0823 18.5288C11.0823 13.8817 15.3166 10.9304 16.9121 9.98091C17.5307 10.0828 18.1504 10.2868 18.8992 10.4553Z" fill="#BC6AA7"/>
<path d="M35.8362 32.3014C36.9432 31.488 39.9305 28.5158 40.5591 26.6028C41.1811 24.7105 41.6862 22.0762 39.7125 18.9702C37.6776 15.7698 35.4123 15.0357 34.4688 14.6284C33.5242 14.2218 31.2759 13.4071 28.1171 13.8817C24.9574 14.3568 23.6547 15.7821 22.9382 16.2564C22.2216 16.731 22.7756 17.4099 23.3621 17.0028C23.9484 16.596 25.7551 15.179 27.661 14.5943C29.6124 13.9971 32.6142 14.559 33.6534 14.9674C34.5589 15.3226 37.1068 15.8491 39.3208 19.7164C41.536 23.5837 39.3865 27.0437 38.4419 28.2644C37.4972 29.4863 34.4033 32.7422 30.4291 34.2018C26.4561 35.66 22.7423 35.6263 20.6584 35.5586C21.2125 33.8959 21.2447 33.7939 21.505 32.9798C22.71 33.0483 26.7465 32.7029 28.9316 31.7928C31.3737 30.7748 34.2085 28.9086 35.3479 27.5866C36.4882 26.2633 37.9857 24.8387 37.7911 22.2942C37.5953 19.75 35.7561 18.1795 34.7614 17.4779C33.7512 16.7652 30.9175 15.544 28.2796 16.2901C25.6416 17.0369 25.8697 18.1905 23.8504 18.8684C21.8311 19.5473 19.3656 17.968 20.8542 15.8491C22.4496 13.5764 26.0656 12.4577 28.3453 12.2195C30.359 12.0103 33.3608 12.1518 36.0966 13.5427C38.8325 14.9332 41.6006 17.3765 42.9689 20.5647C44.3374 23.7535 43.7445 26.7829 42.2525 29.6214C41.1677 31.6866 39.1594 33.4891 38.6043 33.9637C37.8233 33.4891 36.7152 32.8107 35.8362 32.3014Z" fill="#2974B9"/>
<path d="M3.50098 32.3143L4.10118 33.2825L7.41358 31.0705L7.87148 31.8101L4.55938 34.0218L5.16308 34.996L4.50528 35.4352L2.84348 32.7536L3.50098 32.3143ZM4.31918 30.3759C3.56538 30.655 2.94558 30.7336 2.45988 30.6121C1.97438 30.4909 1.63728 30.1562 1.44918 29.6085C1.35118 29.3239 1.32098 29.0584 1.35818 28.8124C1.39558 28.5666 1.49218 28.3409 1.64788 28.135C1.80378 27.929 2.01388 27.7413 2.27788 27.5718C2.54208 27.4023 2.84988 27.2526 3.20138 27.1225C3.95488 26.8434 4.57578 26.7678 5.06358 26.8957C5.55128 27.0239 5.88818 27.3574 6.07338 27.896C6.17258 28.1851 6.20328 28.4518 6.16548 28.6954C6.12718 28.939 6.03038 29.1641 5.87468 29.3698C5.71868 29.5757 5.50798 29.7626 5.24318 29.9296C4.97868 30.0966 4.67058 30.2455 4.31918 30.3759ZM4.02128 29.5083C4.24538 29.4251 4.44968 29.3349 4.63308 29.2371C4.81688 29.1392 4.96788 29.0338 5.08668 28.9208C5.20488 28.8078 5.28858 28.6893 5.33658 28.5651C5.38458 28.4415 5.38458 28.3094 5.33628 28.169C5.24908 27.9148 5.05858 27.7705 4.76508 27.7359C4.47158 27.7016 4.04958 27.7863 3.49918 27.9901C3.28328 28.07 3.08338 28.1587 2.89998 28.2565C2.71618 28.354 2.56378 28.4588 2.44198 28.5705C2.32088 28.6821 2.23518 28.8014 2.18568 28.9284C2.13628 29.0553 2.13628 29.1912 2.18598 29.3357C2.35888 29.8397 2.97078 29.8971 4.02128 29.5083ZM2.81858 23.8101L2.77238 22.3038L4.86188 22.2346C5.02408 22.4016 5.14398 22.5987 5.22068 22.8266C5.29738 23.0544 5.33948 23.2822 5.34648 23.51C5.35498 23.7843 5.31518 24.0346 5.22768 24.2608C5.14018 24.4872 4.99888 24.6816 4.80368 24.8438C4.60828 25.0063 4.35838 25.1354 4.05318 25.2317C3.74828 25.328 3.37988 25.3832 2.94848 25.3975C2.49908 25.4125 2.11778 25.3738 1.80438 25.2818C1.49128 25.1897 1.23468 25.0622 1.03368 24.8987C0.832978 24.7356 0.685478 24.5428 0.590978 24.3205C0.496478 24.0974 0.445178 23.8609 0.437578 23.6096C0.430578 23.3867 0.443478 23.1826 0.475978 22.9976C0.508678 22.8125 0.547378 22.6591 0.593278 22.5364L1.33358 22.6932C1.29618 22.788 1.26568 22.897 1.24258 23.0209C1.21948 23.1452 1.21038 23.2956 1.21598 23.4723C1.22098 23.6348 1.25668 23.7815 1.32398 23.9119C1.39088 24.0425 1.49308 24.1509 1.63058 24.2369C1.76838 24.3231 1.94458 24.387 2.15938 24.4288C2.37438 24.4704 2.63018 24.4866 2.92688 24.4769C3.49718 24.4581 3.91498 24.3544 4.17928 24.1664C4.44288 23.9787 4.57048 23.7381 4.56138 23.4453C4.55878 23.3523 4.54268 23.263 4.51288 23.178C4.48208 23.0929 4.43738 23.0188 4.37558 22.9556L3.40028 22.9882L3.31928 23.7934L2.81858 23.8101ZM0.779378 20.079L1.29378 17.6962L2.05718 17.8738L1.72778 19.399L2.85988 19.6623L3.15808 18.2802L3.92148 18.4579L3.62268 19.84L4.80748 20.1158L5.14288 18.5636L5.90568 18.7411L5.38548 21.1513L0.779378 20.079ZM4.04958 13.2926L3.55778 14.3241L7.08728 16.1378L6.71128 16.9257L3.18208 15.112L2.68668 16.1503L1.98578 15.79L3.34878 12.9323L4.04958 13.2926ZM8.07428 11.3312L7.21958 12.3253L8.70838 13.7054L8.14418 14.3614L4.62318 11.0976L5.18708 10.4418L6.63578 11.7844L7.49108 10.7905L6.04238 9.44763L6.60648 8.79207L10.1273 12.0556L9.56338 12.7115L8.07428 11.3312ZM8.14658 7.37662L10.0207 5.90032L10.4936 6.54699L9.29418 7.4917L9.99558 8.45097L11.082 7.595L11.5549 8.24167L10.4682 9.09764L11.202 10.1018L12.4225 9.1402L12.8954 9.78688L11.0001 11.2801L8.14658 7.37662ZM11.662 4.88154C11.8071 4.75731 11.9698 4.63731 12.1492 4.52158C12.3286 4.40525 12.486 4.31138 12.6218 4.23939C12.7933 4.14858 12.9697 4.0775 13.1508 4.02585C13.3317 3.97482 13.5081 3.96236 13.6799 3.98941C13.8514 4.01613 14.0158 4.08933 14.1721 4.20781C14.3286 4.32687 14.4673 4.50883 14.5876 4.75396C14.7614 5.10723 14.8398 5.42864 14.8237 5.71747C14.8073 6.00661 14.7099 6.25082 14.5314 6.45009L14.8688 6.52303L16.4626 7.78487L15.5945 8.24477L14.0182 6.91062L13.655 7.00111L14.541 8.80302L13.7864 9.2025L11.662 4.88154ZM13.3914 6.46466L13.6489 6.3283C13.8364 6.22903 13.9488 6.09473 13.9866 5.92552C14.024 5.756 13.9813 5.54681 13.8587 5.29734C13.7668 5.11058 13.6521 4.97874 13.5137 4.9025C13.3759 4.82656 13.2211 4.83384 13.049 4.92497C12.9855 4.95869 12.9243 4.99333 12.8667 5.02947C12.8091 5.06502 12.7652 5.09902 12.7353 5.13032L13.3914 6.46466ZM20.1826 5.38907L19.1117 5.68865L19.126 6.8444L18.3149 7.07136L18.396 1.93753L19.0382 1.75802L21.5989 6.1531L20.7421 6.39245L20.1826 5.38907ZM19.1082 4.94989L19.8608 4.73938L19.315 3.71025L19.0186 2.9955L18.9923 3.0031L19.0769 3.78407L19.1082 4.94989ZM23.4257 3.39648L24.87 3.24459L25.0807 5.40405C24.9312 5.58349 24.7501 5.72109 24.5364 5.81623C24.3229 5.91158 24.1066 5.97046 23.888 5.9936C23.6253 6.02118 23.3821 5.99721 23.1582 5.92253C22.935 5.84722 22.7383 5.71447 22.5689 5.52336C22.3992 5.33225 22.2579 5.08202 22.1446 4.7728C22.0308 4.46357 21.9524 4.08599 21.9088 3.64009C21.8637 3.17563 21.8746 2.77832 21.9413 2.44755C22.0083 2.11704 22.1133 1.84217 22.2564 1.62283C22.3992 1.40384 22.5745 1.23769 22.7816 1.12469C22.9894 1.01139 23.2136 0.942109 23.4544 0.916614C23.6683 0.894135 23.8649 0.893526 24.0449 0.914486C24.2248 0.935446 24.3755 0.965198 24.4964 1.00408L24.3966 1.7817C24.3029 1.74919 24.1962 1.7255 24.0753 1.71001C23.9544 1.69453 23.8093 1.69542 23.6399 1.71336C23.4839 1.72977 23.3455 1.77714 23.225 1.85552C23.1041 1.93389 23.007 2.04718 22.9338 2.19573C22.8604 2.34395 22.8109 2.53106 22.7855 2.75646C22.7603 2.98214 22.7626 3.24793 22.7922 3.55443C22.8498 4.144 22.978 4.56926 23.177 4.8299C23.3757 5.09023 23.6156 5.20591 23.8965 5.17616C23.9855 5.16707 24.07 5.14399 24.1496 5.10752C24.2292 5.06985 24.2977 5.01824 24.3539 4.94989L24.2558 3.94233L23.4763 3.91407L23.4257 3.39648ZM28.0759 4.6683L26.9672 4.64521L26.6702 5.75941L25.8301 5.74175L27.2897 0.836121L27.9551 0.849777L29.2303 5.81251L28.3434 5.79402L28.0759 4.6683ZM27.1624 3.93503L27.9422 3.95145L27.6952 2.80475L27.6031 2.03259L27.5758 2.03199L27.4465 2.80658L27.1624 3.93503ZM30.785 1.16144L31.6233 1.28507L30.9588 6.13667L30.1204 6.01271L30.785 1.16144ZM33.7617 4.31016L33.6786 3.39555L33.6464 3.38644L33.5381 4.23332L32.931 6.57199L32.1588 6.35599L33.3956 1.59095L34.0254 1.76713L34.7121 4.51095L34.7788 5.40673L34.8178 5.41768L34.9225 4.58445L35.5349 2.2255L36.3072 2.44147L35.0703 7.20679L34.4406 7.03066L33.7617 4.31016ZM38.1419 7.19976C38.2018 7.06371 38.2141 6.92973 38.1787 6.7976C38.1439 6.66548 38.0866 6.52943 38.0078 6.38904C37.9291 6.24907 37.8413 6.10207 37.7442 5.94804C37.6468 5.79402 37.5666 5.62997 37.5028 5.45591C37.439 5.28226 37.4042 5.09599 37.3977 4.89794C37.3916 4.69991 37.4399 4.48423 37.5429 4.25095C37.6383 4.03436 37.7509 3.86608 37.8803 3.74518C38.0102 3.6249 38.1506 3.54258 38.3031 3.49976C38.455 3.45662 38.6165 3.44841 38.7868 3.47546C38.9571 3.50279 39.1277 3.55685 39.2991 3.63826C39.5066 3.73697 39.6909 3.85029 39.8513 3.97785C40.0122 4.10544 40.1354 4.23363 40.2218 4.36181L39.6717 4.95504C39.6251 4.87121 39.5429 4.77582 39.425 4.6683C39.3071 4.56077 39.1689 4.46933 39.01 4.39371C38.8514 4.31837 38.7139 4.29406 38.5983 4.32139C38.483 4.34876 38.3961 4.42802 38.3379 4.55957C38.2855 4.67863 38.2779 4.80196 38.3154 4.92984C38.3522 5.05772 38.4105 5.19197 38.4892 5.33225C38.5679 5.47202 38.6551 5.62026 38.7514 5.77635C38.8477 5.93224 38.9272 6.09835 38.9901 6.27458C39.0525 6.45071 39.0867 6.63903 39.092 6.83893C39.0973 7.03913 39.0501 7.25172 38.9509 7.47651C38.852 7.7013 38.7344 7.88177 38.598 8.0172C38.462 8.15273 38.3121 8.24684 38.148 8.30004C37.9841 8.35283 37.8089 8.36801 37.6213 8.34591C37.434 8.3237 37.2409 8.26513 37.041 8.17029C36.7885 8.05005 36.5787 7.91937 36.4119 7.77847C36.2445 7.63756 36.1243 7.51091 36.0505 7.39903L36.6185 6.79884C36.6773 6.88841 36.7671 6.99264 36.8871 7.11144C37.0071 7.23024 37.149 7.32796 37.312 7.40544C37.719 7.59923 37.9958 7.53064 38.1419 7.19976ZM43.8373 7.52062L42.9244 6.86692L40.6882 10.2322L39.9912 9.73285L42.2274 6.36755L41.3088 5.70993L41.7527 5.04162L44.2815 6.85205L43.8373 7.52062ZM45.1933 14.4234C45.0417 14.4018 44.8843 14.3311 44.7213 14.2111C44.5577 14.0911 44.4117 13.9569 44.2835 13.8077C44.1223 13.6206 44.0032 13.417 43.9266 13.1984C43.8499 12.9797 43.8312 12.7428 43.8707 12.4876C43.9105 12.2322 44.0181 11.9615 44.1928 11.6741C44.3678 11.387 44.6262 11.0852 44.968 10.7681C45.3235 10.4384 45.6521 10.2036 45.9541 10.0642C46.2564 9.92479 46.5311 9.85372 46.7792 9.85134C47.0271 9.84886 47.2501 9.90258 47.447 10.0129C47.6445 10.1231 47.8148 10.2613 47.9582 10.4279C48.1045 10.5979 48.2186 10.759 48.3009 10.9105C48.3831 11.0617 48.4416 11.1929 48.4767 11.3036L47.8066 11.6915C47.7835 11.5946 47.7428 11.4931 47.6852 11.3874C47.6272 11.282 47.5465 11.1683 47.4417 11.0469C47.236 10.8075 46.9773 10.717 46.6654 10.7753C46.3541 10.8336 45.9836 11.0614 45.5544 11.4594C45.37 11.6304 45.214 11.8017 45.0871 11.9725C44.9598 12.1434 44.8685 12.3123 44.8132 12.4791C44.7576 12.6459 44.7424 12.8068 44.7672 12.9615C44.7918 13.1163 44.8638 13.2631 44.9832 13.4019C45.0879 13.5231 45.1936 13.6124 45.2998 13.6698C45.4063 13.727 45.5111 13.77 45.6143 13.799L45.1933 14.4234ZM47.2741 16.349L46.7266 15.3478L45.6524 15.6518L45.2377 14.893L50.0457 13.6892L50.3746 14.2901L46.9162 17.9637L46.4784 17.1627L47.2741 16.349ZM47.4148 15.1591L47.7993 15.8629L48.6227 15.0571L49.2153 14.5801L49.2018 14.5555L48.4946 14.8362L47.4148 15.1591ZM49.6308 19.338L50.372 18.8361L50.3646 18.8021L49.5922 19.0967L47.3156 19.6274L47.1403 18.817L51.7789 17.7356L51.9216 18.3962L49.9017 20.3045L49.169 20.7828L49.1781 20.8235L49.9372 20.5319L52.2336 19.9967L52.4088 20.8072L47.7703 21.8883L47.6272 21.2279L49.6308 19.338ZM47.797 25.8629C47.7095 25.7329 47.6527 25.5649 47.6264 25.3593C47.6003 25.153 47.5962 24.9507 47.6144 24.7514C47.6372 24.5018 47.7004 24.2727 47.8028 24.0659C47.9052 23.8587 48.06 23.6838 48.2675 23.5407C48.4752 23.3973 48.7395 23.2953 49.0611 23.2333C49.3832 23.1719 49.7721 23.1634 50.2286 23.2087C50.7032 23.2554 51.0924 23.3466 51.3958 23.4817C51.6998 23.6172 51.9366 23.7785 52.1069 23.9659C52.2769 24.1531 52.3901 24.3593 52.4463 24.5847C52.5025 24.8098 52.5203 25.0337 52.4999 25.2557C52.4791 25.4826 52.4428 25.6788 52.3916 25.8444C52.3407 26.0099 52.2871 26.1435 52.233 26.2456L51.5038 25.9984C51.5565 25.9148 51.6007 25.8152 51.636 25.6994C51.6715 25.5837 51.6969 25.4449 51.7118 25.283C51.7408 24.9635 51.6293 24.7046 51.3762 24.5066C51.1234 24.3089 50.7108 24.1816 50.1379 24.1248C49.8918 24.1005 49.665 24.098 49.4578 24.1173C49.2504 24.1367 49.0692 24.1816 48.9136 24.2527C48.7582 24.3238 48.6338 24.4213 48.5414 24.5456C48.4486 24.6694 48.3939 24.8241 48.3769 25.0091C48.362 25.1713 48.3705 25.3122 48.4024 25.4322C48.4343 25.5521 48.475 25.6615 48.5244 25.7597L47.797 25.8629ZM51.8757 28.46L51.0851 30.76L50.3483 30.4873L50.8542 29.0153L49.7616 28.6106L49.3033 29.9445L48.5668 29.6716L49.0251 28.3379L47.8815 27.9142L47.3665 29.4126L46.63 29.1398L47.4297 26.8134L51.8757 28.46ZM50.125 32.7636C50.0598 32.9464 49.9775 33.1352 49.8786 33.3289C49.78 33.523 49.6893 33.6864 49.6071 33.8198C49.5026 33.9877 49.3847 34.1415 49.2533 34.2806C49.1216 34.4194 48.975 34.522 48.8135 34.5886C48.6523 34.6552 48.4752 34.6776 48.2824 34.6566C48.0896 34.6357 47.8815 34.5506 47.6586 34.4018C47.3373 34.1873 47.1137 33.9508 46.9876 33.6925C46.8618 33.434 46.8275 33.1722 46.8855 32.9067L46.558 33.02L44.5694 32.7621L45.0967 31.9113L47.1055 32.2406L47.3756 31.9729L45.7367 30.8782L46.1946 30.1389L50.125 32.7636ZM47.8634 32.2985L47.7068 32.551C47.593 32.7348 47.5608 32.9095 47.6106 33.0756C47.66 33.2415 47.7981 33.4001 48.0252 33.5516C48.1952 33.6652 48.3585 33.719 48.5148 33.7125C48.671 33.7062 48.8009 33.6191 48.9054 33.4508C48.944 33.3882 48.98 33.3262 49.0125 33.2651C49.045 33.2041 49.0666 33.1518 49.0768 33.1089L47.8634 32.2985Z" fill="#9D9E9E"/>
<path d="M13.841 37.6311L14.1462 37.7926L14.047 38.1641L14.071 38.1769C14.3534 37.9803 14.6524 37.9654 14.9675 38.1319C15.2833 38.2987 15.4597 38.5465 15.4972 38.8752C15.5346 39.2041 15.4164 39.6471 15.1431 40.2044C15.015 40.4663 14.873 40.6886 14.7185 40.8715C14.5634 41.0541 14.4019 41.1938 14.2334 41.291C14.0654 41.3879 13.8936 41.4386 13.7181 41.4425C13.5425 41.4469 13.3707 41.4046 13.2031 41.3162C13.0872 41.2548 12.9991 41.1989 12.9385 41.1485C12.878 41.0981 12.8183 41.0289 12.7609 40.9411L12.131 42.226L11.6999 41.9982L13.841 37.6311ZM12.9842 40.4854C13.0158 40.565 13.0591 40.6379 13.115 40.7038C13.1706 40.7697 13.256 40.8335 13.3722 40.8949C13.5838 41.0067 13.8065 40.9827 14.0402 40.8235C14.2743 40.6643 14.4932 40.3767 14.6972 39.9608C14.7826 39.7862 14.8493 39.6224 14.8967 39.4691C14.9441 39.3162 14.9687 39.1763 14.9708 39.049C14.9725 38.9217 14.9506 38.8105 14.9043 38.7154C14.8578 38.6201 14.7809 38.5438 14.6729 38.487C14.3817 38.333 14.1032 38.4189 13.8378 38.7449L12.9842 40.4854ZM16.9295 39.1817L16.2436 41.2017C16.1298 41.5364 16.0818 41.787 16.0982 41.9541C16.1152 42.1211 16.2103 42.2366 16.3835 42.2997C16.4725 42.3323 16.5582 42.3423 16.6404 42.3307C16.7229 42.3186 16.8022 42.2919 16.878 42.2506C16.9538 42.2089 17.0264 42.1564 17.0954 42.0926C17.1648 42.0289 17.2262 41.9599 17.2798 41.8855L18.0581 39.5945L18.514 39.7616L17.7114 42.1248C17.6578 42.2837 17.6075 42.4495 17.5604 42.6226C17.5136 42.7961 17.479 42.9504 17.4568 43.0859L17.1332 42.9674L17.1759 42.4635L17.1572 42.4565C17.036 42.5755 16.8897 42.6643 16.7177 42.7226C16.5456 42.7806 16.3586 42.7731 16.1555 42.6989C16.0204 42.6494 15.9083 42.5884 15.8188 42.516C15.7292 42.4434 15.664 42.3481 15.6236 42.2296C15.5832 42.1106 15.5724 41.9644 15.5908 41.7906C15.6096 41.6169 15.6613 41.4046 15.7465 41.1537L16.4728 39.0143L16.9295 39.1817ZM19.7035 38.696L20.1752 38.8081L19.8165 40.4323L19.8364 40.4369C20.0655 40.2522 20.3285 40.1947 20.6258 40.2652C20.962 40.3454 21.1835 40.5444 21.2904 40.8617C21.3974 41.1792 21.3843 41.6382 21.252 42.2387C21.1162 42.8526 20.9032 43.2831 20.6115 43.5296C20.3203 43.7766 19.9695 43.851 19.559 43.7533C19.3579 43.7056 19.1797 43.6381 19.0244 43.5506C18.869 43.4634 18.7569 43.3784 18.6878 43.2948L19.7035 38.696ZM19.2303 43.0865C19.2836 43.1375 19.3524 43.1837 19.4375 43.2256C19.5227 43.2673 19.6154 43.3 19.7161 43.3238C19.9429 43.3778 20.148 43.3083 20.3309 43.1151C20.5141 42.9213 20.6568 42.5904 20.7604 42.1217C20.8037 41.9262 20.8306 41.7469 20.8412 41.5845C20.852 41.422 20.8447 41.2776 20.8195 41.1519C20.7947 41.0264 20.7481 40.9231 20.6808 40.8426C20.6138 40.7619 20.5234 40.7078 20.4096 40.6808C20.2525 40.6434 20.112 40.6616 19.9876 40.7348C19.8633 40.8083 19.7585 40.9234 19.6734 41.0802L19.2303 43.0865ZM22.6332 43.4227C22.6121 43.5844 22.6176 43.7028 22.6507 43.7785C22.6838 43.8535 22.7379 43.8969 22.8134 43.9075C22.9068 43.921 23.0188 43.9108 23.1499 43.8778L23.1432 44.2867C23.0806 44.3155 22.9954 44.3338 22.888 44.3422C22.7809 44.3504 22.6853 44.3486 22.6007 44.3368C22.4321 44.3125 22.3028 44.2386 22.213 44.1151C22.1225 43.9917 22.0959 43.7934 22.1319 43.5209L22.6876 39.3248L23.1666 39.3931L22.6332 43.4227ZM24.3763 40.9499L24.8594 40.9827L24.6402 44.4756L24.1571 44.4427L24.3763 40.9499ZM24.3561 39.8821C24.3631 39.7703 24.3988 39.682 24.4638 39.6161C24.5281 39.5502 24.6098 39.5207 24.7081 39.5274C24.8067 39.5341 24.886 39.5733 24.9466 39.6453C25.0074 39.7169 25.0338 39.8114 25.0265 39.9277C25.0197 40.0396 24.9817 40.1246 24.9129 40.1828C24.8442 40.2415 24.7605 40.2673 24.6625 40.2606C24.5638 40.254 24.4866 40.2163 24.4301 40.1471C24.3739 40.0778 24.3493 39.9894 24.3561 39.8821ZM27.897 44.3252C27.7878 44.4172 27.6617 44.4865 27.5198 44.5327C27.3776 44.5789 27.2281 44.6046 27.0715 44.6093C26.8562 44.6159 26.6736 44.578 26.5235 44.4959C26.3731 44.4142 26.2502 44.2942 26.1536 44.1362C26.0573 43.978 25.9851 43.7864 25.9359 43.5613C25.887 43.3365 25.8586 43.0862 25.851 42.811C25.8344 42.2141 25.9233 41.756 26.1185 41.4375C26.3137 41.1188 26.6016 40.9535 26.9826 40.942C27.157 40.9368 27.3077 40.9486 27.4341 40.9775C27.5602 41.0064 27.6691 41.0452 27.7598 41.0939L27.6377 41.5386C27.4558 41.4368 27.2591 41.3888 27.0487 41.3952C26.8073 41.4024 26.6273 41.5188 26.5106 41.7442C26.3933 41.9696 26.3417 42.3199 26.3549 42.7958C26.3605 42.9872 26.3786 43.1663 26.4102 43.3335C26.4421 43.5005 26.4907 43.6451 26.5568 43.7666C26.6229 43.8887 26.7066 43.9841 26.807 44.0534C26.9074 44.1226 27.0317 44.1555 27.1795 44.1508C27.296 44.1472 27.4042 44.1229 27.5037 44.078C27.6035 44.0329 27.6837 43.9817 27.7445 43.9236L27.897 44.3252ZM29.4616 40.8843L29.8669 40.8217L29.8394 40.6279C29.7771 40.1938 29.7917 39.871 29.8836 39.6583C29.9757 39.446 30.1653 39.3178 30.4539 39.2735C30.5686 39.2555 30.6742 39.2464 30.769 39.2458C30.8641 39.2452 30.9636 39.2607 31.0678 39.2913L31.0098 39.7394C30.9247 39.7145 30.8469 39.7021 30.7763 39.7011C30.7061 39.7002 30.6403 39.7044 30.5776 39.7142C30.4893 39.7279 30.4232 39.7567 30.3798 39.8013C30.3362 39.8458 30.3078 39.9092 30.2953 39.9912C30.2818 40.0735 30.2806 40.1762 30.2915 40.2998C30.3023 40.4231 30.3204 40.5723 30.3456 40.7479L31.037 40.641L31.1014 41.0911L30.41 41.1977L30.8419 44.2098L30.3635 44.2839L29.9316 41.2719L29.526 41.3345L29.4616 40.8843ZM32.1127 40.4259L32.5844 42.5112C32.6625 42.8565 32.7521 43.0946 32.853 43.2262C32.954 43.3571 33.0938 43.4011 33.2729 43.3574C33.3645 43.3352 33.4418 43.2958 33.5052 43.2399C33.5684 43.1834 33.6208 43.1168 33.6636 43.0394C33.7057 42.9619 33.7396 42.8769 33.7648 42.7845C33.7897 42.6922 33.8058 42.5996 33.8122 42.5069L33.2776 40.1422L33.7487 40.0274L34.3006 42.4669C34.3374 42.6308 34.381 42.7986 34.4317 42.9708C34.482 43.143 34.5332 43.2922 34.5847 43.4188L34.2508 43.5002L34.0252 43.0519L34.0056 43.0567C33.9652 43.2247 33.888 43.3814 33.7739 43.5266C33.6592 43.6718 33.4973 43.7702 33.2878 43.8213C33.1486 43.8553 33.0221 43.8668 32.9092 43.8559C32.7962 43.8449 32.6918 43.8009 32.5961 43.7238C32.5004 43.6464 32.4153 43.5291 32.3407 43.3726C32.266 43.2156 32.1993 43.0079 32.1408 42.7487L31.6413 40.5407L32.1127 40.4259ZM37.3944 42.4198L36.7108 40.4062C36.5988 40.0759 36.4808 39.8506 36.3568 39.73C36.2327 39.61 36.0756 39.5845 35.8857 39.6537C35.7165 39.7157 35.5948 39.8199 35.5211 39.9657C35.4467 40.1111 35.4105 40.2706 35.4122 40.4432L36.228 42.8465L35.7718 43.0133L34.6511 39.7124L34.9806 39.5917L35.1819 39.9114L35.2009 39.9043C35.241 39.7564 35.3151 39.6152 35.4242 39.4812C35.5334 39.3472 35.6826 39.2458 35.8731 39.1759C36.0083 39.1267 36.1341 39.103 36.2514 39.1046C36.3685 39.1064 36.4776 39.1416 36.5797 39.2109C36.6813 39.2799 36.7773 39.3874 36.8671 39.5325C36.9569 39.6777 37.0427 39.8715 37.1249 40.1136L37.8512 42.2527L37.3944 42.4198ZM40.3358 39.596C40.4408 39.8077 40.5382 39.9982 40.6278 40.1683C40.7173 40.3381 40.8153 40.5 40.9218 40.6528L40.629 40.8095L40.3478 40.4873L40.3237 40.5003C40.3299 40.6546 40.2939 40.8052 40.2155 40.9523C40.1374 41.0993 40.0148 41.2175 39.8477 41.3071C39.5249 41.4799 39.2203 41.4778 38.9329 41.3007C38.6456 41.1236 38.3629 40.7551 38.0847 40.1953C37.8207 39.6644 37.7171 39.2106 37.7745 38.8333C37.8316 38.456 38.0294 38.1769 38.3676 37.9955C38.4835 37.9335 38.5783 37.8917 38.6532 37.8701C38.7281 37.8482 38.8139 37.8324 38.9098 37.823L38.2728 36.5417L38.7027 36.3115L40.3358 39.596ZM39.1357 38.2774C39.055 38.2574 38.9742 38.2546 38.8932 38.2693C38.8124 38.2838 38.7141 38.322 38.5988 38.384C38.3875 38.497 38.2725 38.6844 38.2541 38.9466C38.236 39.2084 38.3296 39.5468 38.5356 39.9618C38.6263 40.144 38.7191 40.3029 38.8144 40.4386C38.9093 40.5741 39.0067 40.6834 39.1062 40.7667C39.2057 40.8503 39.3066 40.901 39.409 40.9195C39.5114 40.9381 39.6168 40.9186 39.7242 40.8611C40.0109 40.7075 40.1066 40.4331 40.0109 40.038L39.1357 38.2774Z" fill="#9D9E9E"/>
<path d="M9.81146 38.2094C10.4991 38.2094 11.0564 37.6289 11.0564 36.9128C11.0564 36.1968 10.4991 35.6163 9.81146 35.6163C9.12396 35.6163 8.56656 36.1968 8.56656 36.9128C8.56656 37.6289 9.12396 38.2094 9.81146 38.2094Z" fill="#9D9E9E"/>
<path d="M43.4185 37.7349C44.106 37.7349 44.6633 37.1544 44.6633 36.4384C44.6633 35.7223 44.106 35.1418 43.4185 35.1418C42.7309 35.1418 42.1736 35.7223 42.1736 36.4384C42.1736 37.1544 42.7309 37.7349 43.4185 37.7349Z" fill="#9D9E9E"/>
</svg>
